<svg width="369" height="49" viewBox="0 0 369 49" fill="none" xmlns="http://www.w3.org/2000/svg">
<mask id="path-1-outside-1_154_1678" maskUnits="userSpaceOnUse" x="1" y="5" width="367" height="44" fill="black">
<rect fill="white" x="1" y="5" width="367" height="44"/>
<path d="M33.8988 6.44546L50.7583 41.3182L56.4617 42.5273L56.1484 46.4091H36.5311L36.2177 42.5273L42.0465 41.2545L39.3515 35.5273H18.8568L16.0364 41.2545L21.9278 42.5273L21.6145 46.4091H3.31337L3 42.5273L9.2675 41.1909L22.6799 16.3091L26.1271 8.60909L33.5227 6.44546H33.8988ZM21.3638 30.3091H36.9698L29.8249 14.3364H29.1981L21.3638 30.3091Z"/>
<path d="M59.0794 8.03636C61.5028 7.7394 63.7382 7.48485 65.7856 7.27273C67.833 7.06061 69.7968 6.89091 71.6771 6.76364C73.5573 6.59394 75.3958 6.48788 77.1925 6.44546C78.9891 6.36061 80.8276 6.31818 82.7079 6.31818C85.1313 6.31818 87.4294 6.46667 89.6021 6.76364C91.7748 7.06061 93.676 7.61212 95.3055 8.41818C96.9769 9.18182 98.293 10.2424 99.254 11.6C100.215 12.9576 100.696 14.6758 100.696 16.7545C100.696 18.8333 100.09 20.6152 98.878 22.1C97.6663 23.5424 95.9949 24.4333 93.864 24.7727V25.0273C97.2067 25.5364 99.7137 26.6606 101.385 28.4C103.056 30.097 103.892 32.2394 103.892 34.8273C103.892 37.2455 103.307 39.2818 102.137 40.9364C100.967 42.5485 99.4421 43.8424 97.5618 44.8182C95.7234 45.7515 93.6342 46.4091 91.2943 46.7909C88.9962 47.2152 86.6982 47.4273 84.4001 47.4273C81.5588 47.4273 79.0309 47.3848 76.8164 47.3C74.6437 47.2151 72.5963 47.0879 70.6743 46.9182C68.7522 46.7485 66.872 46.5576 65.0335 46.3455C63.1951 46.0909 61.2103 45.8151 59.0794 45.5182L59.3928 41.6364L65.5976 41.1273V12.6182L59.3928 12.1091L59.0794 8.03636ZM73.1813 41.1909C75.0615 41.5303 76.7746 41.7636 78.3206 41.8909C79.8666 42.0182 81.4126 42.0818 82.9586 42.0818C84.5881 42.0818 86.1759 41.997 87.7219 41.8273C89.3096 41.6151 90.7303 41.2545 91.9837 40.7455C93.2372 40.1939 94.24 39.4515 94.9921 38.5182C95.786 37.5424 96.183 36.2697 96.183 34.7C96.183 33.4697 95.9114 32.4515 95.3682 31.6455C94.8668 30.797 94.1774 30.1182 93.2999 29.6091C92.4225 29.1 91.3779 28.7394 90.1662 28.5273C88.9962 28.2727 87.7427 28.1455 86.4057 28.1455H73.1813V41.1909ZM73.1813 22.7364H86.0923C88.2233 22.7364 89.9155 22.3545 91.169 21.5909C92.4225 20.8273 93.0492 19.4697 93.0492 17.5182C93.0492 16.3727 92.7776 15.4182 92.2345 14.6545C91.7331 13.8909 91.0018 13.2758 90.0408 12.8091C89.1216 12.3424 87.9934 12.0242 86.6564 11.8545C85.3193 11.6424 83.8151 11.5364 82.1438 11.5364C80.6814 11.5364 79.2189 11.6 77.7565 11.7273C76.3359 11.8121 74.8108 12.003 73.1813 12.3V22.7364Z"/>
<path d="M130.38 6C133.848 6 137.003 6.50909 139.844 7.52728C142.685 8.54546 145.109 9.98788 147.114 11.8545C149.12 13.6788 150.666 15.8849 151.752 18.4727C152.839 21.0606 153.382 23.903 153.382 27C153.382 30.1394 152.839 33.003 151.752 35.5909C150.666 38.1364 149.12 40.3424 147.114 42.2091C145.109 44.0333 142.685 45.4545 139.844 46.4727C137.003 47.4909 133.848 48 130.38 48C126.912 48 123.757 47.4909 120.916 46.4727C118.075 45.4545 115.651 44.0333 113.646 42.2091C111.64 40.3424 110.094 38.1364 109.008 35.5909C107.921 33.003 107.378 30.1394 107.378 27C107.378 23.903 107.921 21.0606 109.008 18.4727C110.094 15.8849 111.64 13.6788 113.646 11.8545C115.651 9.98788 118.075 8.54546 120.916 7.52728C123.757 6.50909 126.912 6 130.38 6ZM130.38 11.2818C125.617 11.2818 121.877 12.6606 119.161 15.4182C116.487 18.1333 115.15 21.9939 115.15 27C115.15 32.0061 116.487 35.8879 119.161 38.6455C121.877 41.3606 125.617 42.7182 130.38 42.7182C135.143 42.7182 138.862 41.3606 141.536 38.6455C144.252 35.8879 145.61 32.0061 145.61 27C145.61 21.9939 144.252 18.1333 141.536 15.4182C138.862 12.6606 135.143 11.2818 130.38 11.2818Z"/>
<path d="M173.524 7.59091L173.837 11.4727L167.758 12.8091V30.8818C167.758 32.9182 168.092 34.6788 168.761 36.1636C169.429 37.6485 170.327 38.8788 171.456 39.8545C172.626 40.7879 173.983 41.4879 175.529 41.9545C177.117 42.3788 178.809 42.5909 180.606 42.5909C182.319 42.5909 183.886 42.3364 185.307 41.8273C186.727 41.3182 187.96 40.5333 189.005 39.4727C190.049 38.4121 190.843 37.097 191.386 35.5273C191.971 33.9152 192.264 32.0273 192.264 29.8636V12.6818L186.372 11.4727L186.686 7.59091H203.796L204.109 11.4727L198.782 12.6818V29.2273C198.782 32.3667 198.26 35.1242 197.215 37.5C196.212 39.8333 194.854 41.7848 193.141 43.3545C191.428 44.9242 189.422 46.0909 187.124 46.8545C184.826 47.6182 182.424 48 179.917 48C177.034 48 174.38 47.6182 171.957 46.8545C169.534 46.0909 167.444 44.9455 165.69 43.4182C163.935 41.8485 162.556 39.897 161.553 37.5636C160.55 35.2303 160.049 32.4939 160.049 29.3545V12.8091L153.907 11.4727L154.22 7.59091H173.524Z"/>
<path d="M240.901 7.59091L251.43 7.08182L252.182 7.27273L252.872 21.8455L248.485 22.4182L246.04 12.7455L234.195 13V41.1273L240.337 42.5273L239.898 46.4091H220.908L220.469 42.5273L226.674 41.1273V13L214.765 12.7455L212.384 22.4182L207.934 21.8455L208.623 7.27273L209.375 7.08182L217.523 7.59091H240.901Z"/>
<path d="M293.059 7.59091L293.373 11.4727L287.293 12.8091V30.8818C287.293 32.9182 287.627 34.6788 288.296 36.1636C288.964 37.6485 289.863 38.8788 290.991 39.8545C292.161 40.7879 293.519 41.4879 295.065 41.9545C296.653 42.3788 298.345 42.5909 300.141 42.5909C301.855 42.5909 303.421 42.3364 304.842 41.8273C306.263 41.3182 307.495 40.5333 308.54 39.4727C309.585 38.4121 310.378 37.097 310.922 35.5273C311.507 33.9152 311.799 32.0273 311.799 29.8636V12.6818L305.908 11.4727L306.221 7.59091H323.331L323.645 11.4727L318.317 12.6818V29.2273C318.317 32.3667 317.795 35.1242 316.75 37.5C315.748 39.8333 314.39 41.7848 312.676 43.3545C310.963 44.9242 308.958 46.0909 306.66 46.8545C304.362 47.6182 301.959 48 299.452 48C296.569 48 293.916 47.6182 291.492 46.8545C289.069 46.0909 286.98 44.9455 285.225 43.4182C283.47 41.8485 282.091 39.897 281.088 37.5636C280.085 35.2303 279.584 32.4939 279.584 29.3545V12.8091L273.442 11.4727L273.755 7.59091H293.059Z"/>
<path d="M360.231 21.5273L358.476 15.0364C356.847 13.9333 354.966 13.0636 352.835 12.4273C350.746 11.7485 348.302 11.4091 345.502 11.4091C341.826 11.4091 339.11 11.8545 337.355 12.7455C335.642 13.6364 334.785 15.0364 334.785 16.9455C334.785 18.1758 335.203 19.1727 336.039 19.9364C336.874 20.6576 338.023 21.1242 339.486 21.3364L353.337 23.3727C355.342 23.6697 357.181 24.0939 358.852 24.6455C360.565 25.197 362.007 25.9182 363.177 26.8091C364.389 27.7 365.329 28.7818 365.997 30.0545C366.666 31.3273 367 32.8121 367 34.5091C367 37.1818 366.394 39.3879 365.182 41.1273C363.971 42.8667 362.362 44.2455 360.356 45.2636C358.393 46.2818 356.136 46.9818 353.588 47.3636C351.039 47.7879 348.427 48 345.753 48C342.327 48 338.984 47.6394 335.725 46.9182C332.466 46.197 329.165 44.8606 325.823 42.9091L326.512 31.8364L330.523 31.9L331.902 38.0091C333.782 39.3667 335.83 40.4697 338.044 41.3182C340.3 42.1242 343.058 42.5273 346.317 42.5273C348.072 42.5273 349.702 42.4424 351.206 42.2727C352.752 42.103 354.068 41.7848 355.154 41.3182C356.283 40.8515 357.16 40.2151 357.787 39.4091C358.414 38.603 358.727 37.5424 358.727 36.2273C358.727 34.6576 358.226 33.4273 357.223 32.5364C356.22 31.603 354.778 31.0091 352.898 30.7545L338.483 28.6545C336.812 28.4 335.266 28.0182 333.845 27.5091C332.424 27 331.171 26.3424 330.084 25.5364C329.04 24.6879 328.204 23.6697 327.577 22.4818C326.992 21.2939 326.7 19.8939 326.7 18.2818C326.7 16.0333 327.18 14.1455 328.142 12.6182C329.103 11.0485 330.44 9.77576 332.153 8.8C333.908 7.82424 335.955 7.12424 338.295 6.7C340.677 6.23333 343.288 6 346.129 6C350.099 6 353.629 6.40303 356.721 7.20909C359.813 8.01515 362.467 8.9697 364.681 10.0727L364.054 21.3364L360.231 21.5273Z"/>
</mask>
<path d="M33.8988 6.44546L50.7583 41.3182L56.4617 42.5273L56.1484 46.4091H36.5311L36.2177 42.5273L42.0465 41.2545L39.3515 35.5273H18.8568L16.0364 41.2545L21.9278 42.5273L21.6145 46.4091H3.31337L3 42.5273L9.2675 41.1909L22.6799 16.3091L26.1271 8.60909L33.5227 6.44546H33.8988ZM21.3638 30.3091H36.9698L29.8249 14.3364H29.1981L21.3638 30.3091Z" fill="black"/>
<path d="M59.0794 8.03636C61.5028 7.7394 63.7382 7.48485 65.7856 7.27273C67.833 7.06061 69.7968 6.89091 71.6771 6.76364C73.5573 6.59394 75.3958 6.48788 77.1925 6.44546C78.9891 6.36061 80.8276 6.31818 82.7079 6.31818C85.1313 6.31818 87.4294 6.46667 89.6021 6.76364C91.7748 7.06061 93.676 7.61212 95.3055 8.41818C96.9769 9.18182 98.293 10.2424 99.254 11.6C100.215 12.9576 100.696 14.6758 100.696 16.7545C100.696 18.8333 100.09 20.6152 98.878 22.1C97.6663 23.5424 95.9949 24.4333 93.864 24.7727V25.0273C97.2067 25.5364 99.7137 26.6606 101.385 28.4C103.056 30.097 103.892 32.2394 103.892 34.8273C103.892 37.2455 103.307 39.2818 102.137 40.9364C100.967 42.5485 99.4421 43.8424 97.5618 44.8182C95.7234 45.7515 93.6342 46.4091 91.2943 46.7909C88.9962 47.2152 86.6982 47.4273 84.4001 47.4273C81.5588 47.4273 79.0309 47.3848 76.8164 47.3C74.6437 47.2151 72.5963 47.0879 70.6743 46.9182C68.7522 46.7485 66.872 46.5576 65.0335 46.3455C63.1951 46.0909 61.2103 45.8151 59.0794 45.5182L59.3928 41.6364L65.5976 41.1273V12.6182L59.3928 12.1091L59.0794 8.03636ZM73.1813 41.1909C75.0615 41.5303 76.7746 41.7636 78.3206 41.8909C79.8666 42.0182 81.4126 42.0818 82.9586 42.0818C84.5881 42.0818 86.1759 41.997 87.7219 41.8273C89.3096 41.6151 90.7303 41.2545 91.9837 40.7455C93.2372 40.1939 94.24 39.4515 94.9921 38.5182C95.786 37.5424 96.183 36.2697 96.183 34.7C96.183 33.4697 95.9114 32.4515 95.3682 31.6455C94.8668 30.797 94.1774 30.1182 93.2999 29.6091C92.4225 29.1 91.3779 28.7394 90.1662 28.5273C88.9962 28.2727 87.7427 28.1455 86.4057 28.1455H73.1813V41.1909ZM73.1813 22.7364H86.0923C88.2233 22.7364 89.9155 22.3545 91.169 21.5909C92.4225 20.8273 93.0492 19.4697 93.0492 17.5182C93.0492 16.3727 92.7776 15.4182 92.2345 14.6545C91.7331 13.8909 91.0018 13.2758 90.0408 12.8091C89.1216 12.3424 87.9934 12.0242 86.6564 11.8545C85.3193 11.6424 83.8151 11.5364 82.1438 11.5364C80.6814 11.5364 79.2189 11.6 77.7565 11.7273C76.3359 11.8121 74.8108 12.003 73.1813 12.3V22.7364Z" fill="black"/>
<path d="M130.38 6C133.848 6 137.003 6.50909 139.844 7.52728C142.685 8.54546 145.109 9.98788 147.114 11.8545C149.12 13.6788 150.666 15.8849 151.752 18.4727C152.839 21.0606 153.382 23.903 153.382 27C153.382 30.1394 152.839 33.003 151.752 35.5909C150.666 38.1364 149.12 40.3424 147.114 42.2091C145.109 44.0333 142.685 45.4545 139.844 46.4727C137.003 47.4909 133.848 48 130.38 48C126.912 48 123.757 47.4909 120.916 46.4727C118.075 45.4545 115.651 44.0333 113.646 42.2091C111.64 40.3424 110.094 38.1364 109.008 35.5909C107.921 33.003 107.378 30.1394 107.378 27C107.378 23.903 107.921 21.0606 109.008 18.4727C110.094 15.8849 111.64 13.6788 113.646 11.8545C115.651 9.98788 118.075 8.54546 120.916 7.52728C123.757 6.50909 126.912 6 130.38 6ZM130.38 11.2818C125.617 11.2818 121.877 12.6606 119.161 15.4182C116.487 18.1333 115.15 21.9939 115.15 27C115.15 32.0061 116.487 35.8879 119.161 38.6455C121.877 41.3606 125.617 42.7182 130.38 42.7182C135.143 42.7182 138.862 41.3606 141.536 38.6455C144.252 35.8879 145.61 32.0061 145.61 27C145.61 21.9939 144.252 18.1333 141.536 15.4182C138.862 12.6606 135.143 11.2818 130.38 11.2818Z" fill="black"/>
<path d="M173.524 7.59091L173.837 11.4727L167.758 12.8091V30.8818C167.758 32.9182 168.092 34.6788 168.761 36.1636C169.429 37.6485 170.327 38.8788 171.456 39.8545C172.626 40.7879 173.983 41.4879 175.529 41.9545C177.117 42.3788 178.809 42.5909 180.606 42.5909C182.319 42.5909 183.886 42.3364 185.307 41.8273C186.727 41.3182 187.96 40.5333 189.005 39.4727C190.049 38.4121 190.843 37.097 191.386 35.5273C191.971 33.9152 192.264 32.0273 192.264 29.8636V12.6818L186.372 11.4727L186.686 7.59091H203.796L204.109 11.4727L198.782 12.6818V29.2273C198.782 32.3667 198.26 35.1242 197.215 37.5C196.212 39.8333 194.854 41.7848 193.141 43.3545C191.428 44.9242 189.422 46.0909 187.124 46.8545C184.826 47.6182 182.424 48 179.917 48C177.034 48 174.38 47.6182 171.957 46.8545C169.534 46.0909 167.444 44.9455 165.69 43.4182C163.935 41.8485 162.556 39.897 161.553 37.5636C160.55 35.2303 160.049 32.4939 160.049 29.3545V12.8091L153.907 11.4727L154.22 7.59091H173.524Z" fill="black"/>
<path d="M240.901 7.59091L251.43 7.08182L252.182 7.27273L252.872 21.8455L248.485 22.4182L246.04 12.7455L234.195 13V41.1273L240.337 42.5273L239.898 46.4091H220.908L220.469 42.5273L226.674 41.1273V13L214.765 12.7455L212.384 22.4182L207.934 21.8455L208.623 7.27273L209.375 7.08182L217.523 7.59091H240.901Z" fill="black"/>
<path d="M293.059 7.59091L293.373 11.4727L287.293 12.8091V30.8818C287.293 32.9182 287.627 34.6788 288.296 36.1636C288.964 37.6485 289.863 38.8788 290.991 39.8545C292.161 40.7879 293.519 41.4879 295.065 41.9545C296.653 42.3788 298.345 42.5909 300.141 42.5909C301.855 42.5909 303.421 42.3364 304.842 41.8273C306.263 41.3182 307.495 40.5333 308.54 39.4727C309.585 38.4121 310.378 37.097 310.922 35.5273C311.507 33.9152 311.799 32.0273 311.799 29.8636V12.6818L305.908 11.4727L306.221 7.59091H323.331L323.645 11.4727L318.317 12.6818V29.2273C318.317 32.3667 317.795 35.1242 316.75 37.5C315.748 39.8333 314.39 41.7848 312.676 43.3545C310.963 44.9242 308.958 46.0909 306.66 46.8545C304.362 47.6182 301.959 48 299.452 48C296.569 48 293.916 47.6182 291.492 46.8545C289.069 46.0909 286.98 44.9455 285.225 43.4182C283.47 41.8485 282.091 39.897 281.088 37.5636C280.085 35.2303 279.584 32.4939 279.584 29.3545V12.8091L273.442 11.4727L273.755 7.59091H293.059Z" fill="black"/>
<path d="M360.231 21.5273L358.476 15.0364C356.847 13.9333 354.966 13.0636 352.835 12.4273C350.746 11.7485 348.302 11.4091 345.502 11.4091C341.826 11.4091 339.11 11.8545 337.355 12.7455C335.642 13.6364 334.785 15.0364 334.785 16.9455C334.785 18.1758 335.203 19.1727 336.039 19.9364C336.874 20.6576 338.023 21.1242 339.486 21.3364L353.337 23.3727C355.342 23.6697 357.181 24.0939 358.852 24.6455C360.565 25.197 362.007 25.9182 363.177 26.8091C364.389 27.7 365.329 28.7818 365.997 30.0545C366.666 31.3273 367 32.8121 367 34.5091C367 37.1818 366.394 39.3879 365.182 41.1273C363.971 42.8667 362.362 44.2455 360.356 45.2636C358.393 46.2818 356.136 46.9818 353.588 47.3636C351.039 47.7879 348.427 48 345.753 48C342.327 48 338.984 47.6394 335.725 46.9182C332.466 46.197 329.165 44.8606 325.823 42.9091L326.512 31.8364L330.523 31.9L331.902 38.0091C333.782 39.3667 335.83 40.4697 338.044 41.3182C340.3 42.1242 343.058 42.5273 346.317 42.5273C348.072 42.5273 349.702 42.4424 351.206 42.2727C352.752 42.103 354.068 41.7848 355.154 41.3182C356.283 40.8515 357.16 40.2151 357.787 39.4091C358.414 38.603 358.727 37.5424 358.727 36.2273C358.727 34.6576 358.226 33.4273 357.223 32.5364C356.22 31.603 354.778 31.0091 352.898 30.7545L338.483 28.6545C336.812 28.4 335.266 28.0182 333.845 27.5091C332.424 27 331.171 26.3424 330.084 25.5364C329.04 24.6879 328.204 23.6697 327.577 22.4818C326.992 21.2939 326.7 19.8939 326.7 18.2818C326.7 16.0333 327.18 14.1455 328.142 12.6182C329.103 11.0485 330.44 9.77576 332.153 8.8C333.908 7.82424 335.955 7.12424 338.295 6.7C340.677 6.23333 343.288 6 346.129 6C350.099 6 353.629 6.40303 356.721 7.20909C359.813 8.01515 362.467 8.9697 364.681 10.0727L364.054 21.3364L360.231 21.5273Z" fill="black"/>
<path d="M33.8988 6.44546L50.7583 41.3182L56.4617 42.5273L56.1484 46.4091H36.5311L36.2177 42.5273L42.0465 41.2545L39.3515 35.5273H18.8568L16.0364 41.2545L21.9278 42.5273L21.6145 46.4091H3.31337L3 42.5273L9.2675 41.1909L22.6799 16.3091L26.1271 8.60909L33.5227 6.44546H33.8988ZM21.3638 30.3091H36.9698L29.8249 14.3364H29.1981L21.3638 30.3091Z" stroke="black" stroke-width="2" mask="url(#path-1-outside-1_154_1678)"/>
<path d="M59.0794 8.03636C61.5028 7.7394 63.7382 7.48485 65.7856 7.27273C67.833 7.06061 69.7968 6.89091 71.6771 6.76364C73.5573 6.59394 75.3958 6.48788 77.1925 6.44546C78.9891 6.36061 80.8276 6.31818 82.7079 6.31818C85.1313 6.31818 87.4294 6.46667 89.6021 6.76364C91.7748 7.06061 93.676 7.61212 95.3055 8.41818C96.9769 9.18182 98.293 10.2424 99.254 11.6C100.215 12.9576 100.696 14.6758 100.696 16.7545C100.696 18.8333 100.09 20.6152 98.878 22.1C97.6663 23.5424 95.9949 24.4333 93.864 24.7727V25.0273C97.2067 25.5364 99.7137 26.6606 101.385 28.4C103.056 30.097 103.892 32.2394 103.892 34.8273C103.892 37.2455 103.307 39.2818 102.137 40.9364C100.967 42.5485 99.4421 43.8424 97.5618 44.8182C95.7234 45.7515 93.6342 46.4091 91.2943 46.7909C88.9962 47.2152 86.6982 47.4273 84.4001 47.4273C81.5588 47.4273 79.0309 47.3848 76.8164 47.3C74.6437 47.2151 72.5963 47.0879 70.6743 46.9182C68.7522 46.7485 66.872 46.5576 65.0335 46.3455C63.1951 46.0909 61.2103 45.8151 59.0794 45.5182L59.3928 41.6364L65.5976 41.1273V12.6182L59.3928 12.1091L59.0794 8.03636ZM73.1813 41.1909C75.0615 41.5303 76.7746 41.7636 78.3206 41.8909C79.8666 42.0182 81.4126 42.0818 82.9586 42.0818C84.5881 42.0818 86.1759 41.997 87.7219 41.8273C89.3096 41.6151 90.7303 41.2545 91.9837 40.7455C93.2372 40.1939 94.24 39.4515 94.9921 38.5182C95.786 37.5424 96.183 36.2697 96.183 34.7C96.183 33.4697 95.9114 32.4515 95.3682 31.6455C94.8668 30.797 94.1774 30.1182 93.2999 29.6091C92.4225 29.1 91.3779 28.7394 90.1662 28.5273C88.9962 28.2727 87.7427 28.1455 86.4057 28.1455H73.1813V41.1909ZM73.1813 22.7364H86.0923C88.2233 22.7364 89.9155 22.3545 91.169 21.5909C92.4225 20.8273 93.0492 19.4697 93.0492 17.5182C93.0492 16.3727 92.7776 15.4182 92.2345 14.6545C91.7331 13.8909 91.0018 13.2758 90.0408 12.8091C89.1216 12.3424 87.9934 12.0242 86.6564 11.8545C85.3193 11.6424 83.8151 11.5364 82.1438 11.5364C80.6814 11.5364 79.2189 11.6 77.7565 11.7273C76.3359 11.8121 74.8108 12.003 73.1813 12.3V22.7364Z" stroke="black" stroke-width="2" mask="url(#path-1-outside-1_154_1678)"/>
<path d="M130.38 6C133.848 6 137.003 6.50909 139.844 7.52728C142.685 8.54546 145.109 9.98788 147.114 11.8545C149.12 13.6788 150.666 15.8849 151.752 18.4727C152.839 21.0606 153.382 23.903 153.382 27C153.382 30.1394 152.839 33.003 151.752 35.5909C150.666 38.1364 149.12 40.3424 147.114 42.2091C145.109 44.0333 142.685 45.4545 139.844 46.4727C137.003 47.4909 133.848 48 130.38 48C126.912 48 123.757 47.4909 120.916 46.4727C118.075 45.4545 115.651 44.0333 113.646 42.2091C111.64 40.3424 110.094 38.1364 109.008 35.5909C107.921 33.003 107.378 30.1394 107.378 27C107.378 23.903 107.921 21.0606 109.008 18.4727C110.094 15.8849 111.64 13.6788 113.646 11.8545C115.651 9.98788 118.075 8.54546 120.916 7.52728C123.757 6.50909 126.912 6 130.38 6ZM130.38 11.2818C125.617 11.2818 121.877 12.6606 119.161 15.4182C116.487 18.1333 115.15 21.9939 115.15 27C115.15 32.0061 116.487 35.8879 119.161 38.6455C121.877 41.3606 125.617 42.7182 130.38 42.7182C135.143 42.7182 138.862 41.3606 141.536 38.6455C144.252 35.8879 145.61 32.0061 145.61 27C145.61 21.9939 144.252 18.1333 141.536 15.4182C138.862 12.6606 135.143 11.2818 130.38 11.2818Z" stroke="black" stroke-width="2" mask="url(#path-1-outside-1_154_1678)"/>
<path d="M173.524 7.59091L173.837 11.4727L167.758 12.8091V30.8818C167.758 32.9182 168.092 34.6788 168.761 36.1636C169.429 37.6485 170.327 38.8788 171.456 39.8545C172.626 40.7879 173.983 41.4879 175.529 41.9545C177.117 42.3788 178.809 42.5909 180.606 42.5909C182.319 42.5909 183.886 42.3364 185.307 41.8273C186.727 41.3182 187.96 40.5333 189.005 39.4727C190.049 38.4121 190.843 37.097 191.386 35.5273C191.971 33.9152 192.264 32.0273 192.264 29.8636V12.6818L186.372 11.4727L186.686 7.59091H203.796L204.109 11.4727L198.782 12.6818V29.2273C198.782 32.3667 198.26 35.1242 197.215 37.5C196.212 39.8333 194.854 41.7848 193.141 43.3545C191.428 44.9242 189.422 46.0909 187.124 46.8545C184.826 47.6182 182.424 48 179.917 48C177.034 48 174.38 47.6182 171.957 46.8545C169.534 46.0909 167.444 44.9455 165.69 43.4182C163.935 41.8485 162.556 39.897 161.553 37.5636C160.55 35.2303 160.049 32.4939 160.049 29.3545V12.8091L153.907 11.4727L154.22 7.59091H173.524Z" stroke="black" stroke-width="2" mask="url(#path-1-outside-1_154_1678)"/>
<path d="M240.901 7.59091L251.43 7.08182L252.182 7.27273L252.872 21.8455L248.485 22.4182L246.04 12.7455L234.195 13V41.1273L240.337 42.5273L239.898 46.4091H220.908L220.469 42.5273L226.674 41.1273V13L214.765 12.7455L212.384 22.4182L207.934 21.8455L208.623 7.27273L209.375 7.08182L217.523 7.59091H240.901Z" stroke="black" stroke-width="2" mask="url(#path-1-outside-1_154_1678)"/>
<path d="M293.059 7.59091L293.373 11.4727L287.293 12.8091V30.8818C287.293 32.9182 287.627 34.6788 288.296 36.1636C288.964 37.6485 289.863 38.8788 290.991 39.8545C292.161 40.7879 293.519 41.4879 295.065 41.9545C296.653 42.3788 298.345 42.5909 300.141 42.5909C301.855 42.5909 303.421 42.3364 304.842 41.8273C306.263 41.3182 307.495 40.5333 308.54 39.4727C309.585 38.4121 310.378 37.097 310.922 35.5273C311.507 33.9152 311.799 32.0273 311.799 29.8636V12.6818L305.908 11.4727L306.221 7.59091H323.331L323.645 11.4727L318.317 12.6818V29.2273C318.317 32.3667 317.795 35.1242 316.75 37.5C315.748 39.8333 314.39 41.7848 312.676 43.3545C310.963 44.9242 308.958 46.0909 306.66 46.8545C304.362 47.6182 301.959 48 299.452 48C296.569 48 293.916 47.6182 291.492 46.8545C289.069 46.0909 286.98 44.9455 285.225 43.4182C283.47 41.8485 282.091 39.897 281.088 37.5636C280.085 35.2303 279.584 32.4939 279.584 29.3545V12.8091L273.442 11.4727L273.755 7.59091H293.059Z" stroke="black" stroke-width="2" mask="url(#path-1-outside-1_154_1678)"/>
<path d="M360.231 21.5273L358.476 15.0364C356.847 13.9333 354.966 13.0636 352.835 12.4273C350.746 11.7485 348.302 11.4091 345.502 11.4091C341.826 11.4091 339.11 11.8545 337.355 12.7455C335.642 13.6364 334.785 15.0364 334.785 16.9455C334.785 18.1758 335.203 19.1727 336.039 19.9364C336.874 20.6576 338.023 21.1242 339.486 21.3364L353.337 23.3727C355.342 23.6697 357.181 24.0939 358.852 24.6455C360.565 25.197 362.007 25.9182 363.177 26.8091C364.389 27.7 365.329 28.7818 365.997 30.0545C366.666 31.3273 367 32.8121 367 34.5091C367 37.1818 366.394 39.3879 365.182 41.1273C363.971 42.8667 362.362 44.2455 360.356 45.2636C358.393 46.2818 356.136 46.9818 353.588 47.3636C351.039 47.7879 348.427 48 345.753 48C342.327 48 338.984 47.6394 335.725 46.9182C332.466 46.197 329.165 44.8606 325.823 42.9091L326.512 31.8364L330.523 31.9L331.902 38.0091C333.782 39.3667 335.83 40.4697 338.044 41.3182C340.3 42.1242 343.058 42.5273 346.317 42.5273C348.072 42.5273 349.702 42.4424 351.206 42.2727C352.752 42.103 354.068 41.7848 355.154 41.3182C356.283 40.8515 357.16 40.2151 357.787 39.4091C358.414 38.603 358.727 37.5424 358.727 36.2273C358.727 34.6576 358.226 33.4273 357.223 32.5364C356.22 31.603 354.778 31.0091 352.898 30.7545L338.483 28.6545C336.812 28.4 335.266 28.0182 333.845 27.5091C332.424 27 331.171 26.3424 330.084 25.5364C329.04 24.6879 328.204 23.6697 327.577 22.4818C326.992 21.2939 326.7 19.8939 326.7 18.2818C326.7 16.0333 327.18 14.1455 328.142 12.6182C329.103 11.0485 330.44 9.77576 332.153 8.8C333.908 7.82424 335.955 7.12424 338.295 6.7C340.677 6.23333 343.288 6 346.129 6C350.099 6 353.629 6.40303 356.721 7.20909C359.813 8.01515 362.467 8.9697 364.681 10.0727L364.054 21.3364L360.231 21.5273Z" stroke="black" stroke-width="2" mask="url(#path-1-outside-1_154_1678)"/>
<mask id="path-2-outside-2_154_1678" maskUnits="userSpaceOnUse" x="0" y="0" width="369" height="46" fill="black">
<rect fill="white" width="369" height="46"/>
<path d="M33.8988 2.44546L50.7583 37.3182L56.4617 38.5273L56.1484 42.4091H36.5311L36.2177 38.5273L42.0465 37.2545L39.3515 31.5273H18.8568L16.0364 37.2545L21.9278 38.5273L21.6145 42.4091H3.31337L3 38.5273L9.2675 37.1909L22.6799 12.3091L26.1271 4.60909L33.5227 2.44546H33.8988ZM21.3638 26.3091H36.9698L29.8249 10.3364H29.1981L21.3638 26.3091Z"/>
<path d="M59.0794 4.03636C61.5028 3.7394 63.7382 3.48485 65.7856 3.27273C67.833 3.06061 69.7968 2.89091 71.6771 2.76364C73.5573 2.59394 75.3958 2.48788 77.1925 2.44546C78.9891 2.36061 80.8276 2.31818 82.7079 2.31818C85.1313 2.31818 87.4294 2.46667 89.6021 2.76364C91.7748 3.06061 93.676 3.61212 95.3055 4.41818C96.9769 5.18182 98.293 6.24242 99.254 7.6C100.215 8.95758 100.696 10.6758 100.696 12.7545C100.696 14.8333 100.09 16.6152 98.878 18.1C97.6663 19.5424 95.9949 20.4333 93.864 20.7727V21.0273C97.2067 21.5364 99.7137 22.6606 101.385 24.4C103.056 26.097 103.892 28.2394 103.892 30.8273C103.892 33.2455 103.307 35.2818 102.137 36.9364C100.967 38.5485 99.4421 39.8424 97.5618 40.8182C95.7234 41.7515 93.6342 42.4091 91.2943 42.7909C88.9962 43.2152 86.6982 43.4273 84.4001 43.4273C81.5588 43.4273 79.0309 43.3848 76.8164 43.3C74.6437 43.2151 72.5963 43.0879 70.6743 42.9182C68.7522 42.7485 66.872 42.5576 65.0335 42.3455C63.1951 42.0909 61.2103 41.8151 59.0794 41.5182L59.3928 37.6364L65.5976 37.1273V8.61818L59.3928 8.10909L59.0794 4.03636ZM73.1813 37.1909C75.0615 37.5303 76.7746 37.7636 78.3206 37.8909C79.8666 38.0182 81.4126 38.0818 82.9586 38.0818C84.5881 38.0818 86.1759 37.997 87.7219 37.8273C89.3096 37.6151 90.7303 37.2545 91.9837 36.7455C93.2372 36.1939 94.24 35.4515 94.9921 34.5182C95.786 33.5424 96.183 32.2697 96.183 30.7C96.183 29.4697 95.9114 28.4515 95.3682 27.6455C94.8668 26.797 94.1774 26.1182 93.2999 25.6091C92.4225 25.1 91.3779 24.7394 90.1662 24.5273C88.9962 24.2727 87.7427 24.1455 86.4057 24.1455H73.1813V37.1909ZM73.1813 18.7364H86.0923C88.2233 18.7364 89.9155 18.3545 91.169 17.5909C92.4225 16.8273 93.0492 15.4697 93.0492 13.5182C93.0492 12.3727 92.7776 11.4182 92.2345 10.6545C91.7331 9.89091 91.0018 9.27576 90.0408 8.80909C89.1216 8.34243 87.9934 8.02424 86.6564 7.85455C85.3193 7.64242 83.8151 7.53636 82.1438 7.53636C80.6814 7.53636 79.2189 7.6 77.7565 7.72727C76.3359 7.81212 74.8108 8.00303 73.1813 8.3V18.7364Z"/>
<path d="M130.38 2C133.848 2 137.003 2.50909 139.844 3.52728C142.685 4.54546 145.109 5.98788 147.114 7.85455C149.12 9.67879 150.666 11.8849 151.752 14.4727C152.839 17.0606 153.382 19.903 153.382 23C153.382 26.1394 152.839 29.003 151.752 31.5909C150.666 34.1364 149.12 36.3424 147.114 38.2091C145.109 40.0333 142.685 41.4545 139.844 42.4727C137.003 43.4909 133.848 44 130.38 44C126.912 44 123.757 43.4909 120.916 42.4727C118.075 41.4545 115.651 40.0333 113.646 38.2091C111.64 36.3424 110.094 34.1364 109.008 31.5909C107.921 29.003 107.378 26.1394 107.378 23C107.378 19.903 107.921 17.0606 109.008 14.4727C110.094 11.8849 111.64 9.67879 113.646 7.85455C115.651 5.98788 118.075 4.54546 120.916 3.52728C123.757 2.50909 126.912 2 130.38 2ZM130.38 7.28182C125.617 7.28182 121.877 8.66061 119.161 11.4182C116.487 14.1333 115.15 17.9939 115.15 23C115.15 28.0061 116.487 31.8879 119.161 34.6455C121.877 37.3606 125.617 38.7182 130.38 38.7182C135.143 38.7182 138.862 37.3606 141.536 34.6455C144.252 31.8879 145.61 28.0061 145.61 23C145.61 17.9939 144.252 14.1333 141.536 11.4182C138.862 8.66061 135.143 7.28182 130.38 7.28182Z"/>
<path d="M173.524 3.59091L173.837 7.47273L167.758 8.80909V26.8818C167.758 28.9182 168.092 30.6788 168.761 32.1636C169.429 33.6485 170.327 34.8788 171.456 35.8545C172.626 36.7879 173.983 37.4879 175.529 37.9545C177.117 38.3788 178.809 38.5909 180.606 38.5909C182.319 38.5909 183.886 38.3364 185.307 37.8273C186.727 37.3182 187.96 36.5333 189.005 35.4727C190.049 34.4121 190.843 33.097 191.386 31.5273C191.971 29.9152 192.264 28.0273 192.264 25.8636V8.68182L186.372 7.47273L186.686 3.59091H203.796L204.109 7.47273L198.782 8.68182V25.2273C198.782 28.3667 198.26 31.1242 197.215 33.5C196.212 35.8333 194.854 37.7848 193.141 39.3545C191.428 40.9242 189.422 42.0909 187.124 42.8545C184.826 43.6182 182.424 44 179.917 44C177.034 44 174.38 43.6182 171.957 42.8545C169.534 42.0909 167.444 40.9455 165.69 39.4182C163.935 37.8485 162.556 35.897 161.553 33.5636C160.55 31.2303 160.049 28.4939 160.049 25.3545V8.80909L153.907 7.47273L154.22 3.59091H173.524Z"/>
<path d="M240.901 3.59091L251.43 3.08182L252.182 3.27273L252.872 17.8455L248.485 18.4182L246.04 8.74545L234.195 9V37.1273L240.337 38.5273L239.898 42.4091H220.908L220.469 38.5273L226.674 37.1273V9L214.765 8.74545L212.384 18.4182L207.934 17.8455L208.623 3.27273L209.375 3.08182L217.523 3.59091H240.901Z"/>
<path d="M293.059 3.59091L293.373 7.47273L287.293 8.80909V26.8818C287.293 28.9182 287.627 30.6788 288.296 32.1636C288.964 33.6485 289.863 34.8788 290.991 35.8545C292.161 36.7879 293.519 37.4879 295.065 37.9545C296.653 38.3788 298.345 38.5909 300.141 38.5909C301.855 38.5909 303.421 38.3364 304.842 37.8273C306.263 37.3182 307.495 36.5333 308.54 35.4727C309.585 34.4121 310.378 33.097 310.922 31.5273C311.507 29.9152 311.799 28.0273 311.799 25.8636V8.68182L305.908 7.47273L306.221 3.59091H323.331L323.645 7.47273L318.317 8.68182V25.2273C318.317 28.3667 317.795 31.1242 316.75 33.5C315.748 35.8333 314.39 37.7848 312.676 39.3545C310.963 40.9242 308.958 42.0909 306.66 42.8545C304.362 43.6182 301.959 44 299.452 44C296.569 44 293.916 43.6182 291.492 42.8545C289.069 42.0909 286.98 40.9455 285.225 39.4182C283.47 37.8485 282.091 35.897 281.088 33.5636C280.085 31.2303 279.584 28.4939 279.584 25.3545V8.80909L273.442 7.47273L273.755 3.59091H293.059Z"/>
<path d="M360.231 17.5273L358.476 11.0364C356.847 9.93333 354.966 9.06364 352.835 8.42727C350.746 7.74849 348.302 7.40909 345.502 7.40909C341.826 7.40909 339.11 7.85455 337.355 8.74545C335.642 9.63636 334.785 11.0364 334.785 12.9455C334.785 14.1758 335.203 15.1727 336.039 15.9364C336.874 16.6576 338.023 17.1242 339.486 17.3364L353.337 19.3727C355.342 19.6697 357.181 20.0939 358.852 20.6455C360.565 21.197 362.007 21.9182 363.177 22.8091C364.389 23.7 365.329 24.7818 365.997 26.0545C366.666 27.3273 367 28.8121 367 30.5091C367 33.1818 366.394 35.3879 365.182 37.1273C363.971 38.8667 362.362 40.2455 360.356 41.2636C358.393 42.2818 356.136 42.9818 353.588 43.3636C351.039 43.7879 348.427 44 345.753 44C342.327 44 338.984 43.6394 335.725 42.9182C332.466 42.197 329.165 40.8606 325.823 38.9091L326.512 27.8364L330.523 27.9L331.902 34.0091C333.782 35.3667 335.83 36.4697 338.044 37.3182C340.3 38.1242 343.058 38.5273 346.317 38.5273C348.072 38.5273 349.702 38.4424 351.206 38.2727C352.752 38.103 354.068 37.7848 355.154 37.3182C356.283 36.8515 357.16 36.2151 357.787 35.4091C358.414 34.603 358.727 33.5424 358.727 32.2273C358.727 30.6576 358.226 29.4273 357.223 28.5364C356.22 27.603 354.778 27.0091 352.898 26.7545L338.483 24.6545C336.812 24.4 335.266 24.0182 333.845 23.5091C332.424 23 331.171 22.3424 330.084 21.5364C329.04 20.6879 328.204 19.6697 327.577 18.4818C326.992 17.2939 326.7 15.8939 326.7 14.2818C326.7 12.0333 327.18 10.1455 328.142 8.61818C329.103 7.04849 330.44 5.77576 332.153 4.8C333.908 3.82424 335.955 3.12424 338.295 2.7C340.677 2.23333 343.288 2 346.129 2C350.099 2 353.629 2.40303 356.721 3.20909C359.813 4.01515 362.467 4.9697 364.681 6.07273L364.054 17.3364L360.231 17.5273Z"/>
</mask>
<path d="M33.8988 2.44546L50.7583 37.3182L56.4617 38.5273L56.1484 42.4091H36.5311L36.2177 38.5273L42.0465 37.2545L39.3515 31.5273H18.8568L16.0364 37.2545L21.9278 38.5273L21.6145 42.4091H3.31337L3 38.5273L9.2675 37.1909L22.6799 12.3091L26.1271 4.60909L33.5227 2.44546H33.8988ZM21.3638 26.3091H36.9698L29.8249 10.3364H29.1981L21.3638 26.3091Z" fill="white"/>
<path d="M59.0794 4.03636C61.5028 3.7394 63.7382 3.48485 65.7856 3.27273C67.833 3.06061 69.7968 2.89091 71.6771 2.76364C73.5573 2.59394 75.3958 2.48788 77.1925 2.44546C78.9891 2.36061 80.8276 2.31818 82.7079 2.31818C85.1313 2.31818 87.4294 2.46667 89.6021 2.76364C91.7748 3.06061 93.676 3.61212 95.3055 4.41818C96.9769 5.18182 98.293 6.24242 99.254 7.6C100.215 8.95758 100.696 10.6758 100.696 12.7545C100.696 14.8333 100.09 16.6152 98.878 18.1C97.6663 19.5424 95.9949 20.4333 93.864 20.7727V21.0273C97.2067 21.5364 99.7137 22.6606 101.385 24.4C103.056 26.097 103.892 28.2394 103.892 30.8273C103.892 33.2455 103.307 35.2818 102.137 36.9364C100.967 38.5485 99.4421 39.8424 97.5618 40.8182C95.7234 41.7515 93.6342 42.4091 91.2943 42.7909C88.9962 43.2152 86.6982 43.4273 84.4001 43.4273C81.5588 43.4273 79.0309 43.3848 76.8164 43.3C74.6437 43.2151 72.5963 43.0879 70.6743 42.9182C68.7522 42.7485 66.872 42.5576 65.0335 42.3455C63.1951 42.0909 61.2103 41.8151 59.0794 41.5182L59.3928 37.6364L65.5976 37.1273V8.61818L59.3928 8.10909L59.0794 4.03636ZM73.1813 37.1909C75.0615 37.5303 76.7746 37.7636 78.3206 37.8909C79.8666 38.0182 81.4126 38.0818 82.9586 38.0818C84.5881 38.0818 86.1759 37.997 87.7219 37.8273C89.3096 37.6151 90.7303 37.2545 91.9837 36.7455C93.2372 36.1939 94.24 35.4515 94.9921 34.5182C95.786 33.5424 96.183 32.2697 96.183 30.7C96.183 29.4697 95.9114 28.4515 95.3682 27.6455C94.8668 26.797 94.1774 26.1182 93.2999 25.6091C92.4225 25.1 91.3779 24.7394 90.1662 24.5273C88.9962 24.2727 87.7427 24.1455 86.4057 24.1455H73.1813V37.1909ZM73.1813 18.7364H86.0923C88.2233 18.7364 89.9155 18.3545 91.169 17.5909C92.4225 16.8273 93.0492 15.4697 93.0492 13.5182C93.0492 12.3727 92.7776 11.4182 92.2345 10.6545C91.7331 9.89091 91.0018 9.27576 90.0408 8.80909C89.1216 8.34243 87.9934 8.02424 86.6564 7.85455C85.3193 7.64242 83.8151 7.53636 82.1438 7.53636C80.6814 7.53636 79.2189 7.6 77.7565 7.72727C76.3359 7.81212 74.8108 8.00303 73.1813 8.3V18.7364Z" fill="white"/>
<path d="M130.38 2C133.848 2 137.003 2.50909 139.844 3.52728C142.685 4.54546 145.109 5.98788 147.114 7.85455C149.12 9.67879 150.666 11.8849 151.752 14.4727C152.839 17.0606 153.382 19.903 153.382 23C153.382 26.1394 152.839 29.003 151.752 31.5909C150.666 34.1364 149.12 36.3424 147.114 38.2091C145.109 40.0333 142.685 41.4545 139.844 42.4727C137.003 43.4909 133.848 44 130.38 44C126.912 44 123.757 43.4909 120.916 42.4727C118.075 41.4545 115.651 40.0333 113.646 38.2091C111.64 36.3424 110.094 34.1364 109.008 31.5909C107.921 29.003 107.378 26.1394 107.378 23C107.378 19.903 107.921 17.0606 109.008 14.4727C110.094 11.8849 111.64 9.67879 113.646 7.85455C115.651 5.98788 118.075 4.54546 120.916 3.52728C123.757 2.50909 126.912 2 130.38 2ZM130.38 7.28182C125.617 7.28182 121.877 8.66061 119.161 11.4182C116.487 14.1333 115.15 17.9939 115.15 23C115.15 28.0061 116.487 31.8879 119.161 34.6455C121.877 37.3606 125.617 38.7182 130.38 38.7182C135.143 38.7182 138.862 37.3606 141.536 34.6455C144.252 31.8879 145.61 28.0061 145.61 23C145.61 17.9939 144.252 14.1333 141.536 11.4182C138.862 8.66061 135.143 7.28182 130.38 7.28182Z" fill="white"/>
<path d="M173.524 3.59091L173.837 7.47273L167.758 8.80909V26.8818C167.758 28.9182 168.092 30.6788 168.761 32.1636C169.429 33.6485 170.327 34.8788 171.456 35.8545C172.626 36.7879 173.983 37.4879 175.529 37.9545C177.117 38.3788 178.809 38.5909 180.606 38.5909C182.319 38.5909 183.886 38.3364 185.307 37.8273C186.727 37.3182 187.96 36.5333 189.005 35.4727C190.049 34.4121 190.843 33.097 191.386 31.5273C191.971 29.9152 192.264 28.0273 192.264 25.8636V8.68182L186.372 7.47273L186.686 3.59091H203.796L204.109 7.47273L198.782 8.68182V25.2273C198.782 28.3667 198.26 31.1242 197.215 33.5C196.212 35.8333 194.854 37.7848 193.141 39.3545C191.428 40.9242 189.422 42.0909 187.124 42.8545C184.826 43.6182 182.424 44 179.917 44C177.034 44 174.38 43.6182 171.957 42.8545C169.534 42.0909 167.444 40.9455 165.69 39.4182C163.935 37.8485 162.556 35.897 161.553 33.5636C160.55 31.2303 160.049 28.4939 160.049 25.3545V8.80909L153.907 7.47273L154.22 3.59091H173.524Z" fill="white"/>
<path d="M240.901 3.59091L251.43 3.08182L252.182 3.27273L252.872 17.8455L248.485 18.4182L246.04 8.74545L234.195 9V37.1273L240.337 38.5273L239.898 42.4091H220.908L220.469 38.5273L226.674 37.1273V9L214.765 8.74545L212.384 18.4182L207.934 17.8455L208.623 3.27273L209.375 3.08182L217.523 3.59091H240.901Z" fill="white"/>
<path d="M293.059 3.59091L293.373 7.47273L287.293 8.80909V26.8818C287.293 28.9182 287.627 30.6788 288.296 32.1636C288.964 33.6485 289.863 34.8788 290.991 35.8545C292.161 36.7879 293.519 37.4879 295.065 37.9545C296.653 38.3788 298.345 38.5909 300.141 38.5909C301.855 38.5909 303.421 38.3364 304.842 37.8273C306.263 37.3182 307.495 36.5333 308.54 35.4727C309.585 34.4121 310.378 33.097 310.922 31.5273C311.507 29.9152 311.799 28.0273 311.799 25.8636V8.68182L305.908 7.47273L306.221 3.59091H323.331L323.645 7.47273L318.317 8.68182V25.2273C318.317 28.3667 317.795 31.1242 316.75 33.5C315.748 35.8333 314.39 37.7848 312.676 39.3545C310.963 40.9242 308.958 42.0909 306.66 42.8545C304.362 43.6182 301.959 44 299.452 44C296.569 44 293.916 43.6182 291.492 42.8545C289.069 42.0909 286.98 40.9455 285.225 39.4182C283.47 37.8485 282.091 35.897 281.088 33.5636C280.085 31.2303 279.584 28.4939 279.584 25.3545V8.80909L273.442 7.47273L273.755 3.59091H293.059Z" fill="white"/>
<path d="M360.231 17.5273L358.476 11.0364C356.847 9.93333 354.966 9.06364 352.835 8.42727C350.746 7.74849 348.302 7.40909 345.502 7.40909C341.826 7.40909 339.11 7.85455 337.355 8.74545C335.642 9.63636 334.785 11.0364 334.785 12.9455C334.785 14.1758 335.203 15.1727 336.039 15.9364C336.874 16.6576 338.023 17.1242 339.486 17.3364L353.337 19.3727C355.342 19.6697 357.181 20.0939 358.852 20.6455C360.565 21.197 362.007 21.9182 363.177 22.8091C364.389 23.7 365.329 24.7818 365.997 26.0545C366.666 27.3273 367 28.8121 367 30.5091C367 33.1818 366.394 35.3879 365.182 37.1273C363.971 38.8667 362.362 40.2455 360.356 41.2636C358.393 42.2818 356.136 42.9818 353.588 43.3636C351.039 43.7879 348.427 44 345.753 44C342.327 44 338.984 43.6394 335.725 42.9182C332.466 42.197 329.165 40.8606 325.823 38.9091L326.512 27.8364L330.523 27.9L331.902 34.0091C333.782 35.3667 335.83 36.4697 338.044 37.3182C340.3 38.1242 343.058 38.5273 346.317 38.5273C348.072 38.5273 349.702 38.4424 351.206 38.2727C352.752 38.103 354.068 37.7848 355.154 37.3182C356.283 36.8515 357.16 36.2151 357.787 35.4091C358.414 34.603 358.727 33.5424 358.727 32.2273C358.727 30.6576 358.226 29.4273 357.223 28.5364C356.22 27.603 354.778 27.0091 352.898 26.7545L338.483 24.6545C336.812 24.4 335.266 24.0182 333.845 23.5091C332.424 23 331.171 22.3424 330.084 21.5364C329.04 20.6879 328.204 19.6697 327.577 18.4818C326.992 17.2939 326.7 15.8939 326.7 14.2818C326.7 12.0333 327.18 10.1455 328.142 8.61818C329.103 7.04849 330.44 5.77576 332.153 4.8C333.908 3.82424 335.955 3.12424 338.295 2.7C340.677 2.23333 343.288 2 346.129 2C350.099 2 353.629 2.40303 356.721 3.20909C359.813 4.01515 362.467 4.9697 364.681 6.07273L364.054 17.3364L360.231 17.5273Z" fill="white"/>
<path d="M33.8988 2.44546L50.7583 37.3182L56.4617 38.5273L56.1484 42.4091H36.5311L36.2177 38.5273L42.0465 37.2545L39.3515 31.5273H18.8568L16.0364 37.2545L21.9278 38.5273L21.6145 42.4091H3.31337L3 38.5273L9.2675 37.1909L22.6799 12.3091L26.1271 4.60909L33.5227 2.44546H33.8988ZM21.3638 26.3091H36.9698L29.8249 10.3364H29.1981L21.3638 26.3091Z" stroke="black" stroke-width="4" mask="url(#path-2-outside-2_154_1678)"/>
<path d="M59.0794 4.03636C61.5028 3.7394 63.7382 3.48485 65.7856 3.27273C67.833 3.06061 69.7968 2.89091 71.6771 2.76364C73.5573 2.59394 75.3958 2.48788 77.1925 2.44546C78.9891 2.36061 80.8276 2.31818 82.7079 2.31818C85.1313 2.31818 87.4294 2.46667 89.6021 2.76364C91.7748 3.06061 93.676 3.61212 95.3055 4.41818C96.9769 5.18182 98.293 6.24242 99.254 7.6C100.215 8.95758 100.696 10.6758 100.696 12.7545C100.696 14.8333 100.09 16.6152 98.878 18.1C97.6663 19.5424 95.9949 20.4333 93.864 20.7727V21.0273C97.2067 21.5364 99.7137 22.6606 101.385 24.4C103.056 26.097 103.892 28.2394 103.892 30.8273C103.892 33.2455 103.307 35.2818 102.137 36.9364C100.967 38.5485 99.4421 39.8424 97.5618 40.8182C95.7234 41.7515 93.6342 42.4091 91.2943 42.7909C88.9962 43.2152 86.6982 43.4273 84.4001 43.4273C81.5588 43.4273 79.0309 43.3848 76.8164 43.3C74.6437 43.2151 72.5963 43.0879 70.6743 42.9182C68.7522 42.7485 66.872 42.5576 65.0335 42.3455C63.1951 42.0909 61.2103 41.8151 59.0794 41.5182L59.3928 37.6364L65.5976 37.1273V8.61818L59.3928 8.10909L59.0794 4.03636ZM73.1813 37.1909C75.0615 37.5303 76.7746 37.7636 78.3206 37.8909C79.8666 38.0182 81.4126 38.0818 82.9586 38.0818C84.5881 38.0818 86.1759 37.997 87.7219 37.8273C89.3096 37.6151 90.7303 37.2545 91.9837 36.7455C93.2372 36.1939 94.24 35.4515 94.9921 34.5182C95.786 33.5424 96.183 32.2697 96.183 30.7C96.183 29.4697 95.9114 28.4515 95.3682 27.6455C94.8668 26.797 94.1774 26.1182 93.2999 25.6091C92.4225 25.1 91.3779 24.7394 90.1662 24.5273C88.9962 24.2727 87.7427 24.1455 86.4057 24.1455H73.1813V37.1909ZM73.1813 18.7364H86.0923C88.2233 18.7364 89.9155 18.3545 91.169 17.5909C92.4225 16.8273 93.0492 15.4697 93.0492 13.5182C93.0492 12.3727 92.7776 11.4182 92.2345 10.6545C91.7331 9.89091 91.0018 9.27576 90.0408 8.80909C89.1216 8.34243 87.9934 8.02424 86.6564 7.85455C85.3193 7.64242 83.8151 7.53636 82.1438 7.53636C80.6814 7.53636 79.2189 7.6 77.7565 7.72727C76.3359 7.81212 74.8108 8.00303 73.1813 8.3V18.7364Z" stroke="black" stroke-width="4" mask="url(#path-2-outside-2_154_1678)"/>
<path d="M130.38 2C133.848 2 137.003 2.50909 139.844 3.52728C142.685 4.54546 145.109 5.98788 147.114 7.85455C149.12 9.67879 150.666 11.8849 151.752 14.4727C152.839 17.0606 153.382 19.903 153.382 23C153.382 26.1394 152.839 29.003 151.752 31.5909C150.666 34.1364 149.12 36.3424 147.114 38.2091C145.109 40.0333 142.685 41.4545 139.844 42.4727C137.003 43.4909 133.848 44 130.38 44C126.912 44 123.757 43.4909 120.916 42.4727C118.075 41.4545 115.651 40.0333 113.646 38.2091C111.64 36.3424 110.094 34.1364 109.008 31.5909C107.921 29.003 107.378 26.1394 107.378 23C107.378 19.903 107.921 17.0606 109.008 14.4727C110.094 11.8849 111.64 9.67879 113.646 7.85455C115.651 5.98788 118.075 4.54546 120.916 3.52728C123.757 2.50909 126.912 2 130.38 2ZM130.38 7.28182C125.617 7.28182 121.877 8.66061 119.161 11.4182C116.487 14.1333 115.15 17.9939 115.15 23C115.15 28.0061 116.487 31.8879 119.161 34.6455C121.877 37.3606 125.617 38.7182 130.38 38.7182C135.143 38.7182 138.862 37.3606 141.536 34.6455C144.252 31.8879 145.61 28.0061 145.61 23C145.61 17.9939 144.252 14.1333 141.536 11.4182C138.862 8.66061 135.143 7.28182 130.38 7.28182Z" stroke="black" stroke-width="4" mask="url(#path-2-outside-2_154_1678)"/>
<path d="M173.524 3.59091L173.837 7.47273L167.758 8.80909V26.8818C167.758 28.9182 168.092 30.6788 168.761 32.1636C169.429 33.6485 170.327 34.8788 171.456 35.8545C172.626 36.7879 173.983 37.4879 175.529 37.9545C177.117 38.3788 178.809 38.5909 180.606 38.5909C182.319 38.5909 183.886 38.3364 185.307 37.8273C186.727 37.3182 187.96 36.5333 189.005 35.4727C190.049 34.4121 190.843 33.097 191.386 31.5273C191.971 29.9152 192.264 28.0273 192.264 25.8636V8.68182L186.372 7.47273L186.686 3.59091H203.796L204.109 7.47273L198.782 8.68182V25.2273C198.782 28.3667 198.26 31.1242 197.215 33.5C196.212 35.8333 194.854 37.7848 193.141 39.3545C191.428 40.9242 189.422 42.0909 187.124 42.8545C184.826 43.6182 182.424 44 179.917 44C177.034 44 174.38 43.6182 171.957 42.8545C169.534 42.0909 167.444 40.9455 165.69 39.4182C163.935 37.8485 162.556 35.897 161.553 33.5636C160.55 31.2303 160.049 28.4939 160.049 25.3545V8.80909L153.907 7.47273L154.22 3.59091H173.524Z" stroke="black" stroke-width="4" mask="url(#path-2-outside-2_154_1678)"/>
<path d="M240.901 3.59091L251.43 3.08182L252.182 3.27273L252.872 17.8455L248.485 18.4182L246.04 8.74545L234.195 9V37.1273L240.337 38.5273L239.898 42.4091H220.908L220.469 38.5273L226.674 37.1273V9L214.765 8.74545L212.384 18.4182L207.934 17.8455L208.623 3.27273L209.375 3.08182L217.523 3.59091H240.901Z" stroke="black" stroke-width="4" mask="url(#path-2-outside-2_154_1678)"/>
<path d="M293.059 3.59091L293.373 7.47273L287.293 8.80909V26.8818C287.293 28.9182 287.627 30.6788 288.296 32.1636C288.964 33.6485 289.863 34.8788 290.991 35.8545C292.161 36.7879 293.519 37.4879 295.065 37.9545C296.653 38.3788 298.345 38.5909 300.141 38.5909C301.855 38.5909 303.421 38.3364 304.842 37.8273C306.263 37.3182 307.495 36.5333 308.54 35.4727C309.585 34.4121 310.378 33.097 310.922 31.5273C311.507 29.9152 311.799 28.0273 311.799 25.8636V8.68182L305.908 7.47273L306.221 3.59091H323.331L323.645 7.47273L318.317 8.68182V25.2273C318.317 28.3667 317.795 31.1242 316.75 33.5C315.748 35.8333 314.39 37.7848 312.676 39.3545C310.963 40.9242 308.958 42.0909 306.66 42.8545C304.362 43.6182 301.959 44 299.452 44C296.569 44 293.916 43.6182 291.492 42.8545C289.069 42.0909 286.98 40.9455 285.225 39.4182C283.47 37.8485 282.091 35.897 281.088 33.5636C280.085 31.2303 279.584 28.4939 279.584 25.3545V8.80909L273.442 7.47273L273.755 3.59091H293.059Z" stroke="black" stroke-width="4" mask="url(#path-2-outside-2_154_1678)"/>
<path d="M360.231 17.5273L358.476 11.0364C356.847 9.93333 354.966 9.06364 352.835 8.42727C350.746 7.74849 348.302 7.40909 345.502 7.40909C341.826 7.40909 339.11 7.85455 337.355 8.74545C335.642 9.63636 334.785 11.0364 334.785 12.9455C334.785 14.1758 335.203 15.1727 336.039 15.9364C336.874 16.6576 338.023 17.1242 339.486 17.3364L353.337 19.3727C355.342 19.6697 357.181 20.0939 358.852 20.6455C360.565 21.197 362.007 21.9182 363.177 22.8091C364.389 23.7 365.329 24.7818 365.997 26.0545C366.666 27.3273 367 28.8121 367 30.5091C367 33.1818 366.394 35.3879 365.182 37.1273C363.971 38.8667 362.362 40.2455 360.356 41.2636C358.393 42.2818 356.136 42.9818 353.588 43.3636C351.039 43.7879 348.427 44 345.753 44C342.327 44 338.984 43.6394 335.725 42.9182C332.466 42.197 329.165 40.8606 325.823 38.9091L326.512 27.8364L330.523 27.9L331.902 34.0091C333.782 35.3667 335.83 36.4697 338.044 37.3182C340.3 38.1242 343.058 38.5273 346.317 38.5273C348.072 38.5273 349.702 38.4424 351.206 38.2727C352.752 38.103 354.068 37.7848 355.154 37.3182C356.283 36.8515 357.16 36.2151 357.787 35.4091C358.414 34.603 358.727 33.5424 358.727 32.2273C358.727 30.6576 358.226 29.4273 357.223 28.5364C356.22 27.603 354.778 27.0091 352.898 26.7545L338.483 24.6545C336.812 24.4 335.266 24.0182 333.845 23.5091C332.424 23 331.171 22.3424 330.084 21.5364C329.04 20.6879 328.204 19.6697 327.577 18.4818C326.992 17.2939 326.7 15.8939 326.7 14.2818C326.7 12.0333 327.18 10.1455 328.142 8.61818C329.103 7.04849 330.44 5.77576 332.153 4.8C333.908 3.82424 335.955 3.12424 338.295 2.7C340.677 2.23333 343.288 2 346.129 2C350.099 2 353.629 2.40303 356.721 3.20909C359.813 4.01515 362.467 4.9697 364.681 6.07273L364.054 17.3364L360.231 17.5273Z" stroke="black" stroke-width="4" mask="url(#path-2-outside-2_154_1678)"/>
</svg>
