<svg width="1578" height="1645" viewBox="0 0 1578 1645" fill="none" xmlns="http://www.w3.org/2000/svg">
<rect x="6.5" y="6.5" width="1565" height="1632" fill="url(#paint0_linear_154_1698)" stroke="#F7FF00" stroke-width="13"/>
<path d="M238.471 268.197L253.313 267.494L254.374 267.758L255.345 287.882L249.161 288.673L245.715 275.315L229.018 275.667V314.509L237.676 316.442L237.057 321.803H210.288L209.67 316.442L218.416 314.509V275.667L201.63 275.315L198.273 288.673L192 287.882L192.972 267.758L194.032 267.494L205.517 268.197H238.471Z" fill="#F7FF00"/>
<path d="M292.677 266C297.566 266 302.013 266.703 306.018 268.109C310.023 269.515 313.439 271.507 316.266 274.085C319.093 276.604 321.272 279.651 322.804 283.224C324.335 286.798 325.101 290.723 325.101 295C325.101 299.335 324.335 303.29 322.804 306.864C321.272 310.379 319.093 313.425 316.266 316.003C313.439 318.522 310.023 320.485 306.018 321.891C302.013 323.297 297.566 324 292.677 324C287.789 324 283.342 323.297 279.337 321.891C275.332 320.485 271.915 318.522 269.088 316.003C266.261 313.425 264.082 310.379 262.551 306.864C261.019 303.29 260.253 299.335 260.253 295C260.253 290.723 261.019 286.798 262.551 283.224C264.082 279.651 266.261 276.604 269.088 274.085C271.915 271.507 275.332 269.515 279.337 268.109C283.342 266.703 287.789 266 292.677 266ZM292.677 273.294C285.963 273.294 280.691 275.198 276.863 279.006C273.093 282.756 271.209 288.087 271.209 295C271.209 301.913 273.093 307.274 276.863 311.082C280.691 314.831 285.963 316.706 292.677 316.706C299.392 316.706 304.634 314.831 308.403 311.082C312.231 307.274 314.146 301.913 314.146 295C314.146 288.087 312.231 282.756 308.403 279.006C304.634 275.198 299.392 273.294 292.677 273.294Z" fill="#F7FF00"/>
<path d="M336.734 275.403L328.164 273.558L328.606 268.197H355.817L356.259 273.558L347.6 275.403V290.782L359.704 289.024L374.547 275.052L368.362 274.261L368.804 268.197H395.397L395.838 273.733L387.269 275.052L367.655 291.924L389.919 314.509L398.224 316.442L397.782 321.803H369.422L368.981 316.442L375.96 315.3L359.351 296.845L347.6 297.373V314.597L356.259 316.442L355.817 321.803H328.606L328.164 316.442L336.734 314.597V275.403Z" fill="#F7FF00"/>
<path d="M445.25 268.197L460.71 267.67L461.329 268.021L460.18 285.948L453.201 285.597L452.406 275.667H423.428V289.376H439.684L442.423 282.961L447.9 283.4V304.579L442.157 305.018L439.684 296.758H423.428V314.333H452.582L456.116 301.942L463.184 302.558L461.417 321.803H404.433L403.991 316.442L412.649 314.597V275.403L403.991 273.558L404.433 268.197H445.25Z" fill="#F7FF00"/>
<path d="M491.655 268.197L523.549 307.039H524.344V275.315L514.802 273.47L515.244 268.197H539.805L540.246 273.47L533.355 275.315V320.309L523.902 323.033L485.824 277.864H485.206L486.354 296.67V314.685L495.542 316.442L495.101 321.803H469.391L468.95 316.442L477.166 314.685V275.315L468.95 273.47L469.391 268.197H491.655Z" fill="#F7FF00"/>
<path d="M574.976 266C579.865 266 584.311 266.703 588.316 268.109C592.322 269.515 595.738 271.507 598.565 274.085C601.392 276.604 603.571 279.651 605.103 283.224C606.634 286.798 607.4 290.723 607.4 295C607.4 299.335 606.634 303.29 605.103 306.864C603.571 310.379 601.392 313.425 598.565 316.003C595.738 318.522 592.322 320.485 588.316 321.891C584.311 323.297 579.865 324 574.976 324C570.087 324 565.641 323.297 561.635 321.891C557.63 320.485 554.214 318.522 551.387 316.003C548.56 313.425 546.381 310.379 544.849 306.864C543.318 303.29 542.552 299.335 542.552 295C542.552 290.723 543.318 286.798 544.849 283.224C546.381 279.651 548.56 276.604 551.387 274.085C554.214 271.507 557.63 269.515 561.635 268.109C565.641 266.703 570.087 266 574.976 266ZM574.976 273.294C568.262 273.294 562.99 275.198 559.162 279.006C555.392 282.756 553.507 288.087 553.507 295C553.507 301.913 555.392 307.274 559.162 311.082C562.99 314.831 568.262 316.706 574.976 316.706C581.69 316.706 586.932 314.831 590.702 311.082C594.53 307.274 596.444 301.913 596.444 295C596.444 288.087 594.53 282.756 590.702 279.006C586.932 275.198 581.69 273.294 574.976 273.294Z" fill="#F7FF00"/>
<path d="M635.619 268.197L654.526 304.579H655.321L673.874 268.197H698.434L698.876 273.558L690.218 275.403V314.597L698.876 316.442L698.434 321.803H670.782L670.34 316.442L679.616 314.597V276.458H678.468L656.027 320.924L651.08 321.715L627.579 276.282H626.343L627.314 295.967V314.685L635.177 316.442L634.736 321.803H610.97L610.528 316.442L618.745 314.685V275.315L610.528 273.558L610.97 268.197H635.619Z" fill="#F7FF00"/>
<path d="M731.461 268.197L731.903 273.558L723.157 275.403V314.509L731.903 316.442L731.461 321.803H704.073L703.632 316.442L712.29 314.509V275.403L703.632 273.558L704.073 268.197H731.461Z" fill="#F7FF00"/>
<path d="M784.259 287.091L782.845 277.248C780.902 275.784 778.634 274.729 776.042 274.085C773.51 273.382 770.918 273.03 768.268 273.03C764.911 273.03 761.848 273.528 759.08 274.524C756.311 275.462 753.897 276.868 751.835 278.742C749.833 280.617 748.272 282.931 747.153 285.685C746.034 288.38 745.474 291.485 745.474 295C745.474 298.515 746.034 301.649 747.153 304.403C748.272 307.098 749.833 309.383 751.835 311.258C753.897 313.132 756.311 314.568 759.08 315.564C761.848 316.501 764.911 316.97 768.268 316.97C770.918 316.97 773.51 316.647 776.042 316.003C778.634 315.3 780.902 314.216 782.845 312.752L784.259 302.206H791.327L792.21 318.903C788.323 320.719 784.318 322.008 780.195 322.77C776.072 323.59 771.802 324 767.384 324C762.26 324 757.666 323.268 753.602 321.803C749.538 320.28 746.092 318.229 743.265 315.652C740.438 313.015 738.259 309.939 736.728 306.424C735.255 302.909 734.519 299.101 734.519 295C734.519 290.899 735.255 287.091 736.728 283.576C738.259 280.061 740.438 277.014 743.265 274.436C746.092 271.8 749.538 269.749 753.602 268.285C757.666 266.762 762.26 266 767.384 266C771.802 266 776.072 266.381 780.195 267.142C784.318 267.845 788.323 269.046 792.21 270.745L791.327 287.53L784.259 287.091Z" fill="#F7FF00"/>
<path d="M847.385 287.442L844.911 278.479C842.614 276.956 839.963 275.755 836.96 274.876C834.015 273.938 830.569 273.47 826.623 273.47C821.44 273.47 817.611 274.085 815.138 275.315C812.723 276.545 811.515 278.479 811.515 281.115C811.515 282.814 812.104 284.191 813.282 285.245C814.46 286.241 816.08 286.886 818.142 287.179L837.666 289.991C840.493 290.401 843.085 290.987 845.441 291.748C847.856 292.51 849.888 293.506 851.537 294.736C853.245 295.967 854.57 297.461 855.513 299.218C856.455 300.976 856.926 303.026 856.926 305.37C856.926 309.061 856.072 312.107 854.364 314.509C852.656 316.911 850.388 318.815 847.561 320.221C844.793 321.627 841.613 322.594 838.02 323.121C834.427 323.707 830.746 324 826.976 324C822.147 324 817.435 323.502 812.841 322.506C808.247 321.51 803.594 319.665 798.882 316.97L799.853 301.679L805.508 301.767L807.451 310.203C810.102 312.078 812.988 313.601 816.11 314.773C819.29 315.886 823.177 316.442 827.771 316.442C830.245 316.442 832.542 316.325 834.663 316.091C836.842 315.857 838.697 315.417 840.228 314.773C841.819 314.128 843.056 313.249 843.939 312.136C844.823 311.023 845.264 309.559 845.264 307.742C845.264 305.575 844.557 303.876 843.144 302.645C841.73 301.357 839.698 300.536 837.048 300.185L816.728 297.285C814.372 296.933 812.193 296.406 810.19 295.703C808.188 295 806.421 294.092 804.889 292.979C803.417 291.807 802.239 290.401 801.355 288.761C800.531 287.12 800.119 285.187 800.119 282.961C800.119 279.856 800.796 277.248 802.151 275.139C803.505 272.972 805.39 271.214 807.805 269.867C810.279 268.519 813.165 267.553 816.463 266.967C819.82 266.322 823.501 266 827.506 266C833.102 266 838.079 266.557 842.437 267.67C846.796 268.783 850.536 270.101 853.657 271.624L852.774 287.179L847.385 287.442Z" fill="#F7FF00"/>
<path d="M918.1 266C922.989 266 927.436 266.703 931.441 268.109C935.446 269.515 938.862 271.507 941.689 274.085C944.516 276.604 946.695 279.651 948.227 283.224C949.758 286.798 950.524 290.723 950.524 295C950.524 299.335 949.758 303.29 948.227 306.864C946.695 310.379 944.516 313.425 941.689 316.003C938.862 318.522 935.446 320.485 931.441 321.891C927.436 323.297 922.989 324 918.1 324C913.212 324 908.765 323.297 904.76 321.891C900.755 320.485 897.338 318.522 894.511 316.003C891.684 313.425 889.505 310.379 887.974 306.864C886.442 303.29 885.677 299.335 885.677 295C885.677 290.723 886.442 286.798 887.974 283.224C889.505 279.651 891.684 276.604 894.511 274.085C897.338 271.507 900.755 269.515 904.76 268.109C908.765 266.703 913.212 266 918.1 266ZM918.1 273.294C911.386 273.294 906.114 275.198 902.286 279.006C898.516 282.756 896.632 288.087 896.632 295C896.632 301.913 898.516 307.274 902.286 311.082C906.114 314.831 911.386 316.706 918.1 316.706C924.815 316.706 930.057 314.831 933.826 311.082C937.654 307.274 939.569 301.913 939.569 295C939.569 288.087 937.654 282.756 933.826 279.006C930.057 275.198 924.815 273.294 918.1 273.294Z" fill="#F7FF00"/>
<path d="M954.029 321.803L953.587 316.442L962.245 314.597V275.403L953.587 273.558L954.029 268.197H994.404L1009.33 267.67L1010.04 268.021L1008.98 286.212L1002 285.948L1001.12 275.667H973.023V291.133H989.28L992.46 283.839L997.584 284.103V306.512L992.195 306.776L989.28 298.515H973.023V314.597L981.682 316.442V321.803H954.029Z" fill="#F7FF00"/>
<path d="M1048.09 275.403L1039.52 273.558L1039.96 268.197H1067.17L1067.61 273.558L1058.96 275.403V290.782L1071.06 289.024L1085.9 275.052L1079.72 274.261L1080.16 268.197H1106.75L1107.19 273.733L1098.62 275.052L1079.01 291.924L1101.27 314.509L1109.58 316.442L1109.14 321.803H1080.78L1080.34 316.442L1087.32 315.3L1070.71 296.845L1058.96 297.373V314.597L1067.61 316.442L1067.17 321.803H1039.96L1039.52 316.442L1048.09 314.597V275.403Z" fill="#F7FF00"/>
<path d="M1143.18 268.197L1143.62 273.558L1134.87 275.403V314.509L1143.62 316.442L1143.18 321.803H1115.79L1115.35 316.442L1124 314.509V275.403L1115.35 273.558L1115.79 268.197H1143.18Z" fill="#F7FF00"/>
<path d="M1171.26 268.197L1203.15 307.039H1203.95V275.315L1194.41 273.47L1194.85 268.197H1219.41L1219.85 273.47L1212.96 275.315V320.309L1203.51 323.033L1165.43 277.864H1164.81L1165.96 296.67V314.685L1175.15 316.442L1174.71 321.803H1149L1148.55 316.442L1156.77 314.685V275.315L1148.55 273.47L1149 268.197H1171.26Z" fill="#F7FF00"/>
<path d="M1272.43 286.3L1271.37 277.248C1269.25 275.784 1266.8 274.729 1264.03 274.085C1261.27 273.382 1258.56 273.03 1255.91 273.03C1252.55 273.03 1249.49 273.528 1246.72 274.524C1243.95 275.462 1241.53 276.868 1239.47 278.742C1237.47 280.617 1235.91 282.931 1234.79 285.685C1233.67 288.38 1233.11 291.485 1233.11 295C1233.11 298.515 1233.61 301.649 1234.61 304.403C1235.67 307.098 1237.15 309.383 1239.03 311.258C1240.98 313.074 1243.27 314.48 1245.92 315.476C1248.63 316.413 1251.67 316.882 1255.02 316.882C1260.68 316.882 1265.68 315.388 1270.04 312.4V299.306L1259.97 297.461L1260.41 292.276H1286.3L1286.65 297.461L1280.82 298.955V321.891L1278.79 322.858L1271.63 319.342C1269.04 320.924 1266.21 322.096 1263.15 322.858C1260.15 323.619 1257.05 324 1253.87 324C1248.81 324 1244.3 323.268 1240.36 321.803C1236.41 320.28 1233.08 318.229 1230.37 315.652C1227.72 313.015 1225.69 309.939 1224.28 306.424C1222.86 302.909 1222.16 299.101 1222.16 295C1222.16 290.899 1222.89 287.091 1224.37 283.576C1225.9 280.061 1228.08 277.014 1230.9 274.436C1233.73 271.8 1237.18 269.749 1241.24 268.285C1245.3 266.762 1249.9 266 1255.02 266C1259.44 266 1263.86 266.381 1268.27 267.142C1272.69 267.845 1276.84 269.046 1280.73 270.745L1279.5 286.652L1272.43 286.3Z" fill="#F7FF00"/>
<path d="M1340.46 287.442L1337.98 278.479C1335.69 276.956 1333.04 275.755 1330.03 274.876C1327.09 273.938 1323.64 273.47 1319.7 273.47C1314.51 273.47 1310.69 274.085 1308.21 275.315C1305.8 276.545 1304.59 278.479 1304.59 281.115C1304.59 282.814 1305.18 284.191 1306.36 285.245C1307.53 286.241 1309.15 286.886 1311.22 287.179L1330.74 289.991C1333.57 290.401 1336.16 290.987 1338.51 291.748C1340.93 292.51 1342.96 293.506 1344.61 294.736C1346.32 295.967 1347.64 297.461 1348.59 299.218C1349.53 300.976 1350 303.026 1350 305.37C1350 309.061 1349.15 312.107 1347.44 314.509C1345.73 316.911 1343.46 318.815 1340.64 320.221C1337.87 321.627 1334.69 322.594 1331.09 323.121C1327.5 323.707 1323.82 324 1320.05 324C1315.22 324 1310.51 323.502 1305.91 322.506C1301.32 321.51 1296.67 319.665 1291.96 316.97L1292.93 301.679L1298.58 301.767L1300.53 310.203C1303.18 312.078 1306.06 313.601 1309.18 314.773C1312.36 315.886 1316.25 316.442 1320.85 316.442C1323.32 316.442 1325.62 316.325 1327.74 316.091C1329.92 315.857 1331.77 315.417 1333.3 314.773C1334.89 314.128 1336.13 313.249 1337.01 312.136C1337.9 311.023 1338.34 309.559 1338.34 307.742C1338.34 305.575 1337.63 303.876 1336.22 302.645C1334.8 301.357 1332.77 300.536 1330.12 300.185L1309.8 297.285C1307.45 296.933 1305.27 296.406 1303.26 295.703C1301.26 295 1299.49 294.092 1297.96 292.979C1296.49 291.807 1295.31 290.401 1294.43 288.761C1293.6 287.12 1293.19 285.187 1293.19 282.961C1293.19 279.856 1293.87 277.248 1295.22 275.139C1296.58 272.972 1298.46 271.214 1300.88 269.867C1303.35 268.519 1306.24 267.553 1309.54 266.967C1312.89 266.322 1316.58 266 1320.58 266C1326.18 266 1331.15 266.557 1335.51 267.67C1339.87 268.783 1343.61 270.101 1346.73 271.624L1345.85 287.179L1340.46 287.442Z" fill="#F7FF00"/>
<path d="M227.734 530.96L238.486 530.448L239.254 530.64L239.958 545.296L235.478 545.872L232.982 536.144L220.886 536.4V564.688L227.158 566.096L226.71 570H207.318L206.87 566.096L213.206 564.688V536.4L201.046 536.144L198.614 545.872L194.07 545.296L194.774 530.64L195.542 530.448L203.862 530.96H227.734ZM261.672 536.72C264.83 536.72 267.667 537.168 270.184 538.064C272.702 538.96 274.835 540.197 276.584 541.776C278.334 543.355 279.656 545.189 280.552 547.28C281.491 549.371 281.96 551.611 281.96 554C281.96 556.389 281.491 558.651 280.552 560.784C279.656 562.875 278.334 564.709 276.584 566.288C274.835 567.824 272.702 569.04 270.184 569.936C267.667 570.832 264.83 571.28 261.672 571.28C258.515 571.28 255.678 570.832 253.16 569.936C250.643 569.04 248.51 567.824 246.76 566.288C245.011 564.709 243.667 562.875 242.728 560.784C241.832 558.651 241.384 556.389 241.384 554C241.384 551.611 241.832 549.371 242.728 547.28C243.667 545.189 245.011 543.355 246.76 541.776C248.51 540.197 250.643 538.96 253.16 538.064C255.678 537.168 258.515 536.72 261.672 536.72ZM261.672 541.84C257.491 541.84 254.355 542.949 252.264 545.168C250.216 547.344 249.192 550.288 249.192 554C249.192 557.755 250.216 560.72 252.264 562.896C254.355 565.072 257.491 566.16 261.672 566.16C265.811 566.16 268.904 565.072 270.952 562.896C273.043 560.72 274.088 557.755 274.088 554C274.088 550.288 273.043 547.344 270.952 545.168C268.904 542.949 265.811 541.84 261.672 541.84ZM288.613 538V531.664L295.269 527.504L296.293 527.824V538H309.797L310.245 538.384L309.605 543.568L296.293 543.184V557.456C296.293 559.12 296.442 560.507 296.741 561.616C297.082 562.683 297.573 563.536 298.213 564.176C298.895 564.816 299.727 565.264 300.709 565.52C301.69 565.776 302.842 565.904 304.165 565.904C306.639 565.904 308.858 565.413 310.821 564.432L312.805 568.272C311.567 569.296 310.031 570.043 308.197 570.512C306.405 571.024 304.421 571.28 302.245 571.28C297.594 571.28 294.159 570.107 291.941 567.76C289.722 565.413 288.613 561.957 288.613 557.392V542.928L283.557 542.608L283.109 542.224L284.325 538H288.613ZM342.79 553.616C340.315 553.616 338.011 553.68 335.878 553.808C333.744 553.936 331.76 554.149 329.926 554.448C327.622 554.789 325.958 555.429 324.934 556.368C323.91 557.307 323.398 558.672 323.398 560.464C323.398 562 324.016 563.301 325.254 564.368C326.491 565.392 328.475 565.904 331.206 565.904C335.643 565.904 339.504 564.987 342.79 563.152V553.616ZM318.854 540.176C321.286 538.939 323.782 538.064 326.342 537.552C328.902 536.997 331.654 536.72 334.598 536.72C337.371 536.72 339.76 536.997 341.766 537.552C343.814 538.107 345.478 538.896 346.758 539.92C348.08 540.944 349.04 542.181 349.638 543.632C350.278 545.04 350.598 546.597 350.598 548.304V563.472C350.598 564.155 350.747 564.709 351.046 565.136C351.387 565.563 351.899 565.776 352.582 565.776H355.462L355.782 570C354.886 570.299 354.054 570.512 353.286 570.64C352.56 570.768 351.771 570.832 350.918 570.832C349.04 570.832 347.611 570.469 346.63 569.744C345.691 569.019 345.051 567.995 344.71 566.672C342.96 568.165 340.87 569.296 338.438 570.064C336.006 570.875 333.318 571.28 330.374 571.28C328.496 571.28 326.662 571.109 324.87 570.768C323.078 570.469 321.478 569.915 320.07 569.104C318.662 568.251 317.531 567.141 316.678 565.776C315.824 564.411 315.398 562.661 315.398 560.528C315.398 558.992 315.718 557.627 316.358 556.432C317.04 555.195 317.979 554.149 319.174 553.296C320.368 552.4 321.798 551.675 323.462 551.12C325.126 550.565 326.982 550.139 329.03 549.84C331.334 549.499 333.552 549.285 335.686 549.2C337.862 549.115 340.23 549.072 342.79 549.072V546.896C342.79 545.488 342.064 544.336 340.614 543.44C339.206 542.501 336.816 542.032 333.446 542.032C331.526 542.032 329.499 542.267 327.366 542.736C325.275 543.163 323.035 543.909 320.646 544.976L318.854 540.176ZM370.345 527.44L370.921 527.824V565.456L375.465 566.096L375.145 570H358.889L358.569 566.096L363.113 565.456V532.688L358.697 532.112L358.313 528.208L370.345 527.44ZM430.712 544.976L428.92 538.448C427.256 537.339 425.336 536.464 423.16 535.824C421.027 535.141 418.531 534.8 415.672 534.8C411.918 534.8 409.144 535.248 407.352 536.144C405.603 537.04 404.728 538.448 404.728 540.368C404.728 541.605 405.155 542.608 406.008 543.376C406.862 544.101 408.035 544.571 409.528 544.784L423.672 546.832C425.72 547.131 427.598 547.557 429.304 548.112C431.054 548.667 432.526 549.392 433.72 550.288C434.958 551.184 435.918 552.272 436.6 553.552C437.283 554.832 437.624 556.325 437.624 558.032C437.624 560.72 437.006 562.939 435.768 564.688C434.531 566.437 432.888 567.824 430.84 568.848C428.835 569.872 426.531 570.576 423.928 570.96C421.326 571.387 418.659 571.6 415.928 571.6C412.43 571.6 409.016 571.237 405.688 570.512C402.36 569.787 398.99 568.443 395.576 566.48L396.28 555.344L400.376 555.408L401.784 561.552C403.704 562.917 405.795 564.027 408.056 564.88C410.36 565.691 413.176 566.096 416.504 566.096C418.296 566.096 419.96 566.011 421.496 565.84C423.075 565.669 424.419 565.349 425.528 564.88C426.68 564.411 427.576 563.771 428.216 562.96C428.856 562.149 429.176 561.083 429.176 559.76C429.176 558.181 428.664 556.944 427.64 556.048C426.616 555.109 425.144 554.512 423.224 554.256L408.504 552.144C406.798 551.888 405.219 551.504 403.768 550.992C402.318 550.48 401.038 549.819 399.928 549.008C398.862 548.155 398.008 547.131 397.368 545.936C396.771 544.741 396.472 543.333 396.472 541.712C396.472 539.451 396.963 537.552 397.944 536.016C398.926 534.437 400.291 533.157 402.04 532.176C403.832 531.195 405.923 530.491 408.312 530.064C410.744 529.595 413.411 529.36 416.312 529.36C420.366 529.36 423.971 529.765 427.128 530.576C430.286 531.387 432.995 532.347 435.256 533.456L434.616 544.784L430.712 544.976ZM477.482 570L475.946 566.48C474.239 568.059 472.191 569.253 469.802 570.064C467.455 570.875 464.916 571.28 462.186 571.28C459.455 571.28 457.066 570.896 455.018 570.128C453.012 569.403 451.327 568.379 449.962 567.056C448.639 565.691 447.636 564.112 446.954 562.32C446.314 560.485 445.994 558.48 445.994 556.304V542.544L441.45 541.904L441.77 538H458.026L458.346 541.904L453.738 542.544V556.944C453.738 559.717 454.463 561.915 455.914 563.536C457.407 565.157 459.924 565.968 463.466 565.968C465.77 565.968 467.796 565.669 469.546 565.072C471.295 564.475 472.874 563.557 474.282 562.32V542.544L469.738 541.904L470.058 538H486.314L486.634 541.904L482.09 542.544V564.944L486.634 566.096L486.314 570H477.482ZM498.143 537.68L499.871 541.2C501.791 539.579 503.818 538.427 505.951 537.744C508.085 537.061 510.559 536.72 513.375 536.72C516.277 536.72 518.858 537.147 521.119 538C523.423 538.811 525.365 539.984 526.943 541.52C528.522 543.056 529.717 544.891 530.527 547.024C531.381 549.115 531.807 551.44 531.807 554C531.807 556.389 531.359 558.651 530.463 560.784C529.61 562.875 528.33 564.709 526.623 566.288C524.959 567.824 522.89 569.04 520.415 569.936C517.983 570.832 515.167 571.28 511.967 571.28C510.047 571.28 508.234 571.088 506.527 570.704C504.863 570.363 503.327 569.872 501.919 569.232V576.144L506.463 576.784L506.143 580.688H489.887L489.567 576.784L494.111 576.144V542.736L489.951 542.48L489.631 538.576L498.143 537.68ZM501.919 564.304C503.541 564.901 505.119 565.328 506.655 565.584C508.234 565.797 509.855 565.904 511.519 565.904C515.317 565.904 518.325 564.965 520.543 563.088C522.805 561.211 523.935 558.181 523.935 554C523.935 551.867 523.637 550.053 523.039 548.56C522.485 547.067 521.717 545.851 520.735 544.912C519.754 543.931 518.581 543.227 517.215 542.8C515.85 542.331 514.378 542.096 512.799 542.096C510.325 542.096 508.234 542.395 506.527 542.992C504.821 543.589 503.285 544.507 501.919 545.744V564.304ZM542.393 537.68L544.121 541.2C546.041 539.579 548.068 538.427 550.201 537.744C552.335 537.061 554.809 536.72 557.625 536.72C560.527 536.72 563.108 537.147 565.369 538C567.673 538.811 569.615 539.984 571.193 541.52C572.772 543.056 573.967 544.891 574.777 547.024C575.631 549.115 576.057 551.44 576.057 554C576.057 556.389 575.609 558.651 574.713 560.784C573.86 562.875 572.58 564.709 570.873 566.288C569.209 567.824 567.14 569.04 564.665 569.936C562.233 570.832 559.417 571.28 556.217 571.28C554.297 571.28 552.484 571.088 550.777 570.704C549.113 570.363 547.577 569.872 546.169 569.232V576.144L550.713 576.784L550.393 580.688H534.137L533.817 576.784L538.361 576.144V542.736L534.201 542.48L533.881 538.576L542.393 537.68ZM546.169 564.304C547.791 564.901 549.369 565.328 550.905 565.584C552.484 565.797 554.105 565.904 555.769 565.904C559.567 565.904 562.575 564.965 564.793 563.088C567.055 561.211 568.185 558.181 568.185 554C568.185 551.867 567.887 550.053 567.289 548.56C566.735 547.067 565.967 545.851 564.985 544.912C564.004 543.931 562.831 543.227 561.465 542.8C560.1 542.331 558.628 542.096 557.049 542.096C554.575 542.096 552.484 542.395 550.777 542.992C549.071 543.589 547.535 544.507 546.169 545.744V564.304ZM590.532 527.44L591.108 527.824V565.456L595.652 566.096L595.332 570H579.076L578.756 566.096L583.3 565.456V532.688L578.884 532.112L578.5 528.208L590.532 527.44ZM615.257 538L615.577 541.968L610.393 542.864L621.401 563.408H622.105L631.577 542.864L626.713 541.968L626.969 538H642.521L642.841 541.968L638.809 542.864L624.153 572.56C622.873 575.205 621.273 577.168 619.353 578.448C617.433 579.771 615.107 580.432 612.377 580.432C610.499 580.432 608.899 580.155 607.577 579.6C606.297 579.045 605.166 578.213 604.185 577.104L606.617 572.88C608.409 573.733 610.009 574.16 611.417 574.16C613.337 574.16 614.851 573.797 615.961 573.072C617.113 572.347 618.009 571.323 618.649 570L619.481 568.272L615.065 567.12L601.177 543.12L596.249 541.968L596.505 538H615.257ZM663.021 555.472V549.84L685.357 550.352L685.037 555.472H663.021Z" fill="white"/>
<path d="M283.199 888.96L283.519 892.864L277.311 894.208V922.624H298.239L301.311 913.28L306.111 913.728L305.279 928H263.423L263.103 924.096L269.439 922.752V894.208L263.103 892.864L263.423 888.96H283.199ZM317.923 883.328C319.331 883.328 320.547 883.733 321.571 884.544C322.595 885.355 323.107 886.4 323.107 887.68C323.107 888.96 322.595 890.005 321.571 890.816C320.547 891.627 319.331 892.032 317.923 892.032C316.558 892.032 315.363 891.627 314.339 890.816C313.315 890.005 312.803 888.96 312.803 887.68C312.803 886.4 313.315 885.355 314.339 884.544C315.363 883.733 316.558 883.328 317.923 883.328ZM321.379 895.744L321.891 896.192V923.456L326.435 924.096L326.179 928H309.795L309.475 924.096L314.083 923.456V900.608L310.115 900.224L309.795 896.384L321.379 895.744ZM365.359 904.832V934.144L369.135 934.784L368.879 938.688H352.879L352.623 934.784L357.679 934.144V927.232C356.143 927.872 354.457 928.363 352.623 928.704C350.831 929.088 348.889 929.28 346.799 929.28C343.727 929.28 340.996 928.853 338.607 928C336.26 927.189 334.276 926.037 332.655 924.544C331.076 923.051 329.86 921.259 329.007 919.168C328.196 917.035 327.791 914.709 327.791 912.192C327.791 909.248 328.345 906.688 329.455 904.512C330.607 902.293 332.143 900.48 334.062 899.072C335.983 897.621 338.201 896.533 340.719 895.808C343.279 895.083 345.945 894.72 348.719 894.72C351.961 894.72 354.905 894.827 357.551 895.04C360.196 895.253 362.927 895.595 365.743 896.064L365.871 896.384L365.359 904.832ZM357.679 901.056C356.057 900.629 354.543 900.352 353.135 900.224C351.727 900.053 350.041 899.968 348.079 899.968C345.988 899.968 344.153 900.309 342.575 900.992C341.039 901.632 339.759 902.507 338.735 903.616C337.711 904.725 336.943 906.005 336.431 907.456C335.919 908.907 335.663 910.443 335.663 912.064C335.663 915.648 336.644 918.507 338.607 920.64C340.612 922.731 343.407 923.776 346.991 923.776C349.124 923.776 351.023 923.627 352.687 923.328C354.393 923.029 356.057 922.581 357.679 921.984V901.056ZM406.701 928L405.165 924.48C403.458 926.059 401.41 927.253 399.021 928.064C396.674 928.875 394.135 929.28 391.405 929.28C388.674 929.28 386.285 928.896 384.237 928.128C382.231 927.403 380.546 926.379 379.181 925.056C377.858 923.691 376.855 922.112 376.173 920.32C375.533 918.485 375.213 916.48 375.213 914.304V900.544L370.669 899.904L370.989 896H387.245L387.565 899.904L382.957 900.544V914.944C382.957 917.717 383.682 919.915 385.133 921.536C386.626 923.157 389.143 923.968 392.685 923.968C394.989 923.968 397.015 923.669 398.765 923.072C400.514 922.475 402.093 921.557 403.501 920.32V900.544L398.957 899.904L399.277 896H415.533L415.853 899.904L411.309 900.544V922.944L415.853 924.096L415.533 928H406.701ZM427.298 883.328C428.706 883.328 429.922 883.733 430.946 884.544C431.97 885.355 432.482 886.4 432.482 887.68C432.482 888.96 431.97 890.005 430.946 890.816C429.922 891.627 428.706 892.032 427.298 892.032C425.933 892.032 424.738 891.627 423.714 890.816C422.69 890.005 422.178 888.96 422.178 887.68C422.178 886.4 422.69 885.355 423.714 884.544C424.738 883.733 425.933 883.328 427.298 883.328ZM430.754 895.744L431.266 896.192V923.456L435.81 924.096L435.554 928H419.17L418.85 924.096L423.458 923.456V900.608L419.49 900.224L419.17 896.384L430.754 895.744ZM474.798 922.688L479.342 924.096V928H471.534L469.486 924.736C467.651 926.357 465.582 927.509 463.278 928.192C460.974 928.917 458.414 929.28 455.598 929.28C452.739 929.28 450.179 928.853 447.918 928C445.656 927.189 443.715 926.016 442.094 924.48C440.515 922.944 439.299 921.131 438.446 919.04C437.592 916.907 437.166 914.56 437.166 912C437.166 909.483 437.614 907.179 438.51 905.088C439.448 902.955 440.792 901.12 442.542 899.584C444.291 898.048 446.403 896.853 448.878 896C451.395 895.147 454.254 894.72 457.454 894.72C459.416 894.72 461.187 894.891 462.766 895.232C464.344 895.573 465.774 896.043 467.054 896.64V890.752L462.574 890.112L462.19 886.208L474.286 885.44L474.798 885.76V922.688ZM467.054 901.568C465.347 900.971 463.747 900.587 462.254 900.416C460.76 900.203 459.16 900.096 457.454 900.096C453.656 900.096 450.627 901.035 448.366 902.912C446.147 904.789 445.038 907.819 445.038 912C445.038 914.133 445.315 915.947 445.87 917.44C446.467 918.933 447.256 920.171 448.238 921.152C449.219 922.091 450.392 922.795 451.758 923.264C453.123 923.691 454.595 923.904 456.174 923.904C458.606 923.904 460.76 923.584 462.638 922.944C464.515 922.261 465.987 921.365 467.054 920.256V901.568ZM490.798 883.328C492.206 883.328 493.422 883.733 494.446 884.544C495.47 885.355 495.982 886.4 495.982 887.68C495.982 888.96 495.47 890.005 494.446 890.816C493.422 891.627 492.206 892.032 490.798 892.032C489.433 892.032 488.238 891.627 487.214 890.816C486.19 890.005 485.678 888.96 485.678 887.68C485.678 886.4 486.19 885.355 487.214 884.544C488.238 883.733 489.433 883.328 490.798 883.328ZM494.254 895.744L494.766 896.192V923.456L499.31 924.096L499.054 928H482.67L482.35 924.096L486.958 923.456V900.608L482.99 900.224L482.67 896.384L494.254 895.744ZM504.457 896V889.664L511.113 885.504L512.137 885.824V896H525.641L526.089 896.384L525.449 901.568L512.137 901.184V915.456C512.137 917.12 512.286 918.507 512.585 919.616C512.926 920.683 513.417 921.536 514.057 922.176C514.739 922.816 515.571 923.264 516.553 923.52C517.534 923.776 518.686 923.904 520.009 923.904C522.483 923.904 524.702 923.413 526.665 922.432L528.649 926.272C527.411 927.296 525.875 928.043 524.041 928.512C522.249 929.024 520.265 929.28 518.089 929.28C513.438 929.28 510.003 928.107 507.785 925.76C505.566 923.413 504.457 919.957 504.457 915.392V900.928L499.401 900.608L498.953 900.224L500.169 896H504.457ZM547.288 896L547.608 899.968L542.424 900.864L553.432 921.408H554.136L563.608 900.864L558.744 899.968L559 896H574.552L574.872 899.968L570.84 900.864L556.184 930.56C554.904 933.205 553.304 935.168 551.384 936.448C549.464 937.771 547.139 938.432 544.408 938.432C542.531 938.432 540.931 938.155 539.608 937.6C538.328 937.045 537.197 936.213 536.216 935.104L538.648 930.88C540.44 931.733 542.04 932.16 543.448 932.16C545.368 932.16 546.883 931.797 547.992 931.072C549.144 930.347 550.04 929.323 550.68 928L551.512 926.272L547.096 925.12L533.208 901.12L528.28 899.968L528.536 896H547.288ZM595.053 913.472V907.84L617.389 908.352L617.069 913.472H595.053Z" fill="white"/>
<path d="M246.596 1245.36C250.137 1245.36 253.358 1245.87 256.26 1246.9C259.161 1247.92 261.636 1249.37 263.684 1251.25C265.732 1253.08 267.31 1255.3 268.42 1257.9C269.529 1260.51 270.084 1263.37 270.084 1266.48C270.084 1269.64 269.529 1272.52 268.42 1275.12C267.31 1277.68 265.732 1279.9 263.684 1281.78C261.636 1283.61 259.161 1285.04 256.26 1286.06C253.358 1287.09 250.137 1287.6 246.596 1287.6C243.054 1287.6 239.833 1287.09 236.932 1286.06C234.03 1285.04 231.556 1283.61 229.508 1281.78C227.46 1279.9 225.881 1277.68 224.772 1275.12C223.662 1272.52 223.108 1269.64 223.108 1266.48C223.108 1263.37 223.662 1260.51 224.772 1257.9C225.881 1255.3 227.46 1253.08 229.508 1251.25C231.556 1249.37 234.03 1247.92 236.932 1246.9C239.833 1245.87 243.054 1245.36 246.596 1245.36ZM246.596 1250.67C241.732 1250.67 237.913 1252.06 235.14 1254.83C232.409 1257.56 231.044 1261.45 231.044 1266.48C231.044 1271.51 232.409 1275.42 235.14 1278.19C237.913 1280.92 241.732 1282.29 246.596 1282.29C251.46 1282.29 255.257 1280.92 257.988 1278.19C260.761 1275.42 262.148 1271.51 262.148 1266.48C262.148 1261.45 260.761 1257.56 257.988 1254.83C255.257 1252.06 251.46 1250.67 246.596 1250.67ZM288.606 1254L288.926 1257.9L285.15 1258.42L295.582 1279.79H296.094L303.582 1261.87L302.046 1258.48L297.95 1257.9L298.27 1254H314.526L314.846 1257.9L311.07 1258.42L318.75 1279.79H319.262L328.99 1258.42L324.83 1257.9L325.086 1254H339.742L339.998 1257.9L335.902 1258.48L321.95 1285.87L315.038 1286.64L306.91 1268.91L299.102 1285.87L291.87 1286.64L276.126 1258.48L272.03 1257.9L272.35 1254H288.606ZM351.874 1253.68L353.538 1257.52C355.245 1255.94 357.271 1254.75 359.618 1253.94C362.007 1253.13 364.567 1252.72 367.298 1252.72C370.029 1252.72 372.397 1253.08 374.402 1253.81C376.45 1254.53 378.135 1255.56 379.458 1256.88C380.823 1258.2 381.826 1259.76 382.466 1261.55C383.149 1263.34 383.49 1265.33 383.49 1267.5V1281.46L388.034 1282.1L387.714 1286H371.458L371.138 1282.1L375.746 1281.46V1266.86C375.746 1264.13 374.999 1261.98 373.506 1260.4C372.055 1258.82 369.559 1258.03 366.018 1258.03C363.714 1258.03 361.687 1258.33 359.938 1258.93C358.189 1259.53 356.61 1260.44 355.202 1261.68V1281.46L359.746 1282.1L359.426 1286H343.17L342.85 1282.1L347.394 1281.46V1258.74L343.17 1258.48L342.85 1254.58L351.874 1253.68ZM420.131 1267.63C419.96 1264.13 418.915 1261.64 416.995 1260.14C415.118 1258.61 412.643 1257.84 409.571 1257.84C406.03 1257.84 403.256 1258.67 401.251 1260.34C399.246 1262 398.008 1264.43 397.539 1267.63H420.131ZM410.787 1272.94L397.539 1272.24C397.88 1275.48 399.032 1277.96 400.995 1279.66C402.958 1281.33 405.667 1282.16 409.123 1282.16C410.616 1282.16 411.939 1282.1 413.091 1281.97C414.286 1281.84 415.374 1281.65 416.355 1281.39C417.379 1281.09 418.36 1280.71 419.299 1280.24C420.238 1279.73 421.219 1279.11 422.243 1278.38L424.995 1282.99C422.691 1284.61 420.302 1285.72 417.827 1286.32C415.352 1286.96 412.451 1287.28 409.123 1287.28C406.008 1287.28 403.235 1286.83 400.803 1285.94C398.371 1285.04 396.323 1283.8 394.659 1282.22C392.995 1280.65 391.736 1278.81 390.883 1276.72C390.03 1274.63 389.603 1272.39 389.603 1270C389.603 1267.61 390.051 1265.37 390.947 1263.28C391.843 1261.15 393.144 1259.31 394.851 1257.78C396.558 1256.2 398.648 1254.96 401.123 1254.06C403.598 1253.17 406.414 1252.72 409.571 1252.72C412.43 1252.72 414.99 1253.13 417.251 1253.94C419.555 1254.7 421.496 1255.81 423.075 1257.26C424.654 1258.71 425.848 1260.51 426.659 1262.64C427.512 1264.73 427.939 1267.08 427.939 1269.68C427.939 1270.15 427.918 1270.64 427.875 1271.15C427.832 1271.62 427.747 1272.09 427.619 1272.56L427.235 1272.94H410.787ZM438.55 1253.68L440.726 1257.52C442.432 1255.94 444.246 1254.75 446.166 1253.94C448.128 1253.13 450.475 1252.72 453.206 1252.72C455.851 1252.72 458.112 1253.02 459.99 1253.62C461.91 1254.21 463.616 1255.13 465.11 1256.37L464.086 1268.85H459.414L458.326 1260.46C457.643 1259.7 456.704 1259.1 455.51 1258.67C454.315 1258.25 453.056 1258.03 451.734 1258.03C449.558 1258.03 447.787 1258.33 446.422 1258.93C445.056 1259.53 443.712 1260.44 442.39 1261.68V1281.46L446.934 1282.1L446.614 1286H430.358L430.038 1282.1L434.582 1281.46V1258.74L430.358 1258.48L430.038 1254.58L438.55 1253.68ZM495.498 1265.71L494.602 1259.95C493.237 1259.27 491.786 1258.76 490.25 1258.42C488.714 1258.07 487.029 1257.9 485.194 1257.9C483.786 1257.9 482.485 1257.97 481.29 1258.1C480.138 1258.22 479.114 1258.44 478.218 1258.74C477.365 1259.03 476.682 1259.44 476.17 1259.95C475.701 1260.46 475.466 1261.13 475.466 1261.94C475.466 1262.66 475.679 1263.3 476.106 1263.86C476.533 1264.37 477.365 1264.73 478.602 1264.94L492.106 1267.12C495.221 1267.63 497.759 1268.68 499.722 1270.26C501.685 1271.79 502.666 1273.99 502.666 1276.85C502.666 1278.77 502.261 1280.39 501.45 1281.71C500.639 1283.03 499.487 1284.12 497.994 1284.98C496.501 1285.79 494.687 1286.36 492.554 1286.7C490.421 1287.09 488.031 1287.28 485.386 1287.28C482.186 1287.28 479.199 1287.05 476.426 1286.58C473.653 1286.11 470.986 1285.3 468.426 1284.14L468.746 1274.54H473.162L474.122 1279.73C477.535 1281.31 481.29 1282.1 485.386 1282.1C487.306 1282.1 488.906 1281.99 490.186 1281.78C491.509 1281.56 492.554 1281.26 493.322 1280.88C494.09 1280.5 494.623 1280.05 494.922 1279.54C495.263 1278.98 495.434 1278.36 495.434 1277.68C495.434 1275.5 493.941 1274.2 490.954 1273.78L477.962 1271.73C475.018 1271.26 472.714 1270.26 471.05 1268.72C469.429 1267.18 468.618 1265.18 468.618 1262.7C468.618 1260.78 469.045 1259.18 469.898 1257.9C470.751 1256.62 471.925 1255.6 473.418 1254.83C474.911 1254.06 476.661 1253.53 478.666 1253.23C480.714 1252.89 482.89 1252.72 485.194 1252.72C488.223 1252.72 490.975 1252.95 493.45 1253.42C495.967 1253.89 498.314 1254.55 500.49 1255.41L499.85 1265.71H495.498ZM517.189 1243.44L517.765 1243.82V1256.18C519.386 1255.07 521.221 1254.21 523.269 1253.62C525.359 1253.02 527.557 1252.72 529.861 1252.72C532.591 1252.72 534.959 1253.08 536.965 1253.81C539.013 1254.53 540.698 1255.56 542.021 1256.88C543.386 1258.2 544.389 1259.76 545.029 1261.55C545.711 1263.34 546.053 1265.33 546.053 1267.5V1281.46L550.597 1282.1L550.277 1286H534.021L533.701 1282.1L538.309 1281.46V1266.86C538.309 1264.13 537.562 1261.98 536.069 1260.4C534.618 1258.82 532.122 1258.03 528.581 1258.03C526.277 1258.03 524.25 1258.33 522.501 1258.93C520.751 1259.53 519.173 1260.44 517.765 1261.68V1281.46L522.309 1282.1L521.989 1286H505.733L505.413 1282.1L509.957 1281.46V1248.69L505.541 1248.11L505.157 1244.21L517.189 1243.44ZM561.736 1241.33C563.144 1241.33 564.36 1241.73 565.384 1242.54C566.408 1243.35 566.92 1244.4 566.92 1245.68C566.92 1246.96 566.408 1248.01 565.384 1248.82C564.36 1249.63 563.144 1250.03 561.736 1250.03C560.37 1250.03 559.176 1249.63 558.152 1248.82C557.128 1248.01 556.616 1246.96 556.616 1245.68C556.616 1244.4 557.128 1243.35 558.152 1242.54C559.176 1241.73 560.37 1241.33 561.736 1241.33ZM565.192 1253.74L565.704 1254.19V1281.46L570.248 1282.1L569.992 1286H553.608L553.288 1282.1L557.896 1281.46V1258.61L553.928 1258.22L553.608 1254.38L565.192 1253.74ZM580.675 1253.68L582.403 1257.2C584.323 1255.58 586.349 1254.43 588.483 1253.74C590.616 1253.06 593.091 1252.72 595.907 1252.72C598.808 1252.72 601.389 1253.15 603.651 1254C605.955 1254.81 607.896 1255.98 609.475 1257.52C611.053 1259.06 612.248 1260.89 613.059 1263.02C613.912 1265.11 614.339 1267.44 614.339 1270C614.339 1272.39 613.891 1274.65 612.995 1276.78C612.141 1278.87 610.861 1280.71 609.155 1282.29C607.491 1283.82 605.421 1285.04 602.947 1285.94C600.515 1286.83 597.699 1287.28 594.499 1287.28C592.579 1287.28 590.765 1287.09 589.059 1286.7C587.395 1286.36 585.859 1285.87 584.451 1285.23V1292.14L588.995 1292.78L588.675 1296.69H572.419L572.099 1292.78L576.643 1292.14V1258.74L572.483 1258.48L572.163 1254.58L580.675 1253.68ZM584.451 1280.3C586.072 1280.9 587.651 1281.33 589.187 1281.58C590.765 1281.8 592.387 1281.9 594.051 1281.9C597.848 1281.9 600.856 1280.97 603.075 1279.09C605.336 1277.21 606.467 1274.18 606.467 1270C606.467 1267.87 606.168 1266.05 605.571 1264.56C605.016 1263.07 604.248 1261.85 603.267 1260.91C602.285 1259.93 601.112 1259.23 599.747 1258.8C598.381 1258.33 596.909 1258.1 595.331 1258.1C592.856 1258.1 590.765 1258.39 589.059 1258.99C587.352 1259.59 585.816 1260.51 584.451 1261.74V1280.3ZM635.24 1271.47V1265.84L657.576 1266.35L657.256 1271.47H635.24Z" fill="white"/>
<path d="M989.112 564.752L994.68 566.096V570H974.392V566.096L981.304 564.752V540.816C980.152 541.115 979.021 541.328 977.912 541.456C976.845 541.584 975.501 541.648 973.88 541.648L973.304 537.744C975.821 537.36 977.997 536.571 979.832 535.376C981.709 534.181 983.395 532.624 984.888 530.704L989.112 531.344V564.752ZM1006.03 561.168C1007.65 561.168 1009.01 561.595 1010.12 562.448C1011.27 563.259 1011.85 564.475 1011.85 566.096C1011.85 567.675 1011.27 568.891 1010.12 569.744C1009.01 570.555 1007.65 570.96 1006.03 570.96C1004.4 570.96 1003.04 570.555 1001.93 569.744C1000.82 568.891 1000.27 567.675 1000.27 566.096C1000.27 564.475 1000.82 563.259 1001.93 562.448C1003.04 561.595 1004.4 561.168 1006.03 561.168ZM1035.55 529.36C1038.79 529.36 1041.74 529.872 1044.38 530.896C1047.03 531.92 1049.29 533.371 1051.17 535.248C1053.04 537.083 1054.49 539.301 1055.52 541.904C1056.59 544.507 1057.12 547.365 1057.12 550.48C1057.12 553.637 1056.59 556.517 1055.52 559.12C1054.49 561.68 1053.04 563.899 1051.17 565.776C1049.29 567.611 1047.03 569.04 1044.38 570.064C1041.74 571.088 1038.79 571.6 1035.55 571.6C1032.31 571.6 1029.36 571.088 1026.72 570.064C1024.07 569.04 1021.79 567.611 1019.87 565.776C1017.99 563.899 1016.54 561.68 1015.52 559.12C1014.49 556.517 1013.98 553.637 1013.98 550.48C1013.98 547.365 1014.49 544.507 1015.52 541.904C1016.54 539.301 1017.99 537.083 1019.87 535.248C1021.79 533.371 1024.07 531.92 1026.72 530.896C1029.36 529.872 1032.31 529.36 1035.55 529.36ZM1035.55 534.544C1026.46 534.544 1021.92 539.856 1021.92 550.48C1021.92 561.104 1026.46 566.416 1035.55 566.416C1044.64 566.416 1049.18 561.104 1049.18 550.48C1049.18 539.856 1044.64 534.544 1035.55 534.544ZM1082.55 529.36C1085.79 529.36 1088.74 529.872 1091.38 530.896C1094.03 531.92 1096.29 533.371 1098.17 535.248C1100.04 537.083 1101.49 539.301 1102.52 541.904C1103.59 544.507 1104.12 547.365 1104.12 550.48C1104.12 553.637 1103.59 556.517 1102.52 559.12C1101.49 561.68 1100.04 563.899 1098.17 565.776C1096.29 567.611 1094.03 569.04 1091.38 570.064C1088.74 571.088 1085.79 571.6 1082.55 571.6C1079.31 571.6 1076.36 571.088 1073.72 570.064C1071.07 569.04 1068.79 567.611 1066.87 565.776C1064.99 563.899 1063.54 561.68 1062.52 559.12C1061.49 556.517 1060.98 553.637 1060.98 550.48C1060.98 547.365 1061.49 544.507 1062.52 541.904C1063.54 539.301 1064.99 537.083 1066.87 535.248C1068.79 533.371 1071.07 531.92 1073.72 530.896C1076.36 529.872 1079.31 529.36 1082.55 529.36ZM1082.55 534.544C1073.46 534.544 1068.92 539.856 1068.92 550.48C1068.92 561.104 1073.46 566.416 1082.55 566.416C1091.64 566.416 1096.18 561.104 1096.18 550.48C1096.18 539.856 1091.64 534.544 1082.55 534.544ZM1129.55 529.36C1132.79 529.36 1135.74 529.872 1138.38 530.896C1141.03 531.92 1143.29 533.371 1145.17 535.248C1147.04 537.083 1148.49 539.301 1149.52 541.904C1150.59 544.507 1151.12 547.365 1151.12 550.48C1151.12 553.637 1150.59 556.517 1149.52 559.12C1148.49 561.68 1147.04 563.899 1145.17 565.776C1143.29 567.611 1141.03 569.04 1138.38 570.064C1135.74 571.088 1132.79 571.6 1129.55 571.6C1126.31 571.6 1123.36 571.088 1120.72 570.064C1118.07 569.04 1115.79 567.611 1113.87 565.776C1111.99 563.899 1110.54 561.68 1109.52 559.12C1108.49 556.517 1107.98 553.637 1107.98 550.48C1107.98 547.365 1108.49 544.507 1109.52 541.904C1110.54 539.301 1111.99 537.083 1113.87 535.248C1115.79 533.371 1118.07 531.92 1120.72 530.896C1123.36 529.872 1126.31 529.36 1129.55 529.36ZM1129.55 534.544C1120.46 534.544 1115.92 539.856 1115.92 550.48C1115.92 561.104 1120.46 566.416 1129.55 566.416C1138.64 566.416 1143.18 561.104 1143.18 550.48C1143.18 539.856 1138.64 534.544 1129.55 534.544ZM1158.96 561.168C1160.58 561.168 1161.95 561.595 1163.06 562.448C1164.21 563.259 1164.79 564.475 1164.79 566.096C1164.79 567.675 1164.21 568.891 1163.06 569.744C1161.95 570.555 1160.58 570.96 1158.96 570.96C1157.34 570.96 1155.98 570.555 1154.87 569.744C1153.76 568.891 1153.2 567.675 1153.2 566.096C1153.2 564.475 1153.76 563.259 1154.87 562.448C1155.98 561.595 1157.34 561.168 1158.96 561.168ZM1188.49 529.36C1191.73 529.36 1194.67 529.872 1197.32 530.896C1199.97 531.92 1202.23 533.371 1204.1 535.248C1205.98 537.083 1207.43 539.301 1208.46 541.904C1209.52 544.507 1210.06 547.365 1210.06 550.48C1210.06 553.637 1209.52 556.517 1208.46 559.12C1207.43 561.68 1205.98 563.899 1204.1 565.776C1202.23 567.611 1199.97 569.04 1197.32 570.064C1194.67 571.088 1191.73 571.6 1188.49 571.6C1185.25 571.6 1182.3 571.088 1179.66 570.064C1177.01 569.04 1174.73 567.611 1172.81 565.776C1170.93 563.899 1169.48 561.68 1168.46 559.12C1167.43 556.517 1166.92 553.637 1166.92 550.48C1166.92 547.365 1167.43 544.507 1168.46 541.904C1169.48 539.301 1170.93 537.083 1172.81 535.248C1174.73 533.371 1177.01 531.92 1179.66 530.896C1182.3 529.872 1185.25 529.36 1188.49 529.36ZM1188.49 534.544C1179.4 534.544 1174.86 539.856 1174.86 550.48C1174.86 561.104 1179.4 566.416 1188.49 566.416C1197.58 566.416 1202.12 561.104 1202.12 550.48C1202.12 539.856 1197.58 534.544 1188.49 534.544ZM1235.49 529.36C1238.73 529.36 1241.67 529.872 1244.32 530.896C1246.97 531.92 1249.23 533.371 1251.1 535.248C1252.98 537.083 1254.43 539.301 1255.46 541.904C1256.52 544.507 1257.06 547.365 1257.06 550.48C1257.06 553.637 1256.52 556.517 1255.46 559.12C1254.43 561.68 1252.98 563.899 1251.1 565.776C1249.23 567.611 1246.97 569.04 1244.32 570.064C1241.67 571.088 1238.73 571.6 1235.49 571.6C1232.25 571.6 1229.3 571.088 1226.66 570.064C1224.01 569.04 1221.73 567.611 1219.81 565.776C1217.93 563.899 1216.48 561.68 1215.46 559.12C1214.43 556.517 1213.92 553.637 1213.92 550.48C1213.92 547.365 1214.43 544.507 1215.46 541.904C1216.48 539.301 1217.93 537.083 1219.81 535.248C1221.73 533.371 1224.01 531.92 1226.66 530.896C1229.3 529.872 1232.25 529.36 1235.49 529.36ZM1235.49 534.544C1226.4 534.544 1221.86 539.856 1221.86 550.48C1221.86 561.104 1226.4 566.416 1235.49 566.416C1244.58 566.416 1249.12 561.104 1249.12 550.48C1249.12 539.856 1244.58 534.544 1235.49 534.544ZM1282.49 529.36C1285.73 529.36 1288.67 529.872 1291.32 530.896C1293.97 531.92 1296.23 533.371 1298.1 535.248C1299.98 537.083 1301.43 539.301 1302.46 541.904C1303.52 544.507 1304.06 547.365 1304.06 550.48C1304.06 553.637 1303.52 556.517 1302.46 559.12C1301.43 561.68 1299.98 563.899 1298.1 565.776C1296.23 567.611 1293.97 569.04 1291.32 570.064C1288.67 571.088 1285.73 571.6 1282.49 571.6C1279.25 571.6 1276.3 571.088 1273.66 570.064C1271.01 569.04 1268.73 567.611 1266.81 565.776C1264.93 563.899 1263.48 561.68 1262.46 559.12C1261.43 556.517 1260.92 553.637 1260.92 550.48C1260.92 547.365 1261.43 544.507 1262.46 541.904C1263.48 539.301 1264.93 537.083 1266.81 535.248C1268.73 533.371 1271.01 531.92 1273.66 530.896C1276.3 529.872 1279.25 529.36 1282.49 529.36ZM1282.49 534.544C1273.4 534.544 1268.86 539.856 1268.86 550.48C1268.86 561.104 1273.4 566.416 1282.49 566.416C1291.58 566.416 1296.12 561.104 1296.12 550.48C1296.12 539.856 1291.58 534.544 1282.49 534.544Z" fill="white"/>
<path d="M1034.85 889.408C1037.32 889.109 1039.61 888.853 1041.7 888.64C1043.79 888.427 1045.79 888.256 1047.71 888.128C1049.63 887.957 1051.51 887.851 1053.35 887.808C1055.18 887.723 1057.06 887.68 1058.98 887.68C1061.45 887.68 1063.8 887.829 1066.02 888.128C1068.24 888.427 1070.18 888.981 1071.84 889.792C1073.55 890.56 1074.89 891.627 1075.87 892.992C1076.86 894.357 1077.35 896.085 1077.35 898.176C1077.35 900.267 1076.73 902.059 1075.49 903.552C1074.25 905.003 1072.55 905.899 1070.37 906.24V906.496C1073.78 907.008 1076.34 908.139 1078.05 909.888C1079.76 911.595 1080.61 913.749 1080.61 916.352C1080.61 918.784 1080.01 920.832 1078.82 922.496C1077.62 924.117 1076.07 925.419 1074.15 926.4C1072.27 927.339 1070.14 928 1067.75 928.384C1065.4 928.811 1063.05 929.024 1060.71 929.024C1057.8 929.024 1055.22 928.981 1052.96 928.896C1050.74 928.811 1048.65 928.683 1046.69 928.512C1044.73 928.341 1042.81 928.149 1040.93 927.936C1039.05 927.68 1037.03 927.403 1034.85 927.104L1035.17 923.2L1041.51 922.688V894.016L1035.17 893.504L1034.85 889.408ZM1049.25 922.752C1051.17 923.093 1052.92 923.328 1054.5 923.456C1056.08 923.584 1057.66 923.648 1059.23 923.648C1060.9 923.648 1062.52 923.563 1064.1 923.392C1065.72 923.179 1067.17 922.816 1068.45 922.304C1069.73 921.749 1070.75 921.003 1071.52 920.064C1072.33 919.083 1072.74 917.803 1072.74 916.224C1072.74 914.987 1072.46 913.963 1071.91 913.152C1071.39 912.299 1070.69 911.616 1069.79 911.104C1068.9 910.592 1067.83 910.229 1066.59 910.016C1065.4 909.76 1064.12 909.632 1062.75 909.632H1049.25V922.752ZM1049.25 904.192H1062.43C1064.61 904.192 1066.34 903.808 1067.62 903.04C1068.9 902.272 1069.54 900.907 1069.54 898.944C1069.54 897.792 1069.26 896.832 1068.71 896.064C1068.19 895.296 1067.45 894.677 1066.47 894.208C1065.53 893.739 1064.38 893.419 1063.01 893.248C1061.64 893.035 1060.11 892.928 1058.4 892.928C1056.91 892.928 1055.42 892.992 1053.92 893.12C1052.47 893.205 1050.91 893.397 1049.25 893.696V904.192ZM1119.45 928L1117.91 924.48C1116.21 926.059 1114.16 927.253 1111.77 928.064C1109.42 928.875 1106.89 929.28 1104.15 929.28C1101.42 929.28 1099.03 928.896 1096.99 928.128C1094.98 927.403 1093.3 926.379 1091.93 925.056C1090.61 923.691 1089.61 922.112 1088.92 920.32C1088.28 918.485 1087.96 916.48 1087.96 914.304V900.544L1083.42 899.904L1083.74 896H1099.99L1100.31 899.904L1095.71 900.544V914.944C1095.71 917.717 1096.43 919.915 1097.88 921.536C1099.38 923.157 1101.89 923.968 1105.43 923.968C1107.74 923.968 1109.77 923.669 1111.51 923.072C1113.26 922.475 1114.84 921.557 1116.25 920.32V900.544L1111.71 899.904L1112.03 896H1128.28L1128.6 899.904L1124.06 900.544V922.944L1128.6 924.096L1128.28 928H1119.45ZM1140.11 895.68L1142.29 899.52C1143.99 897.941 1145.81 896.747 1147.73 895.936C1149.69 895.125 1152.04 894.72 1154.77 894.72C1157.41 894.72 1159.67 895.019 1161.55 895.616C1163.47 896.213 1165.18 897.131 1166.67 898.368L1165.65 910.848H1160.98L1159.89 902.464C1159.21 901.696 1158.27 901.099 1157.07 900.672C1155.88 900.245 1154.62 900.032 1153.3 900.032C1151.12 900.032 1149.35 900.331 1147.98 900.928C1146.62 901.525 1145.27 902.443 1143.95 903.68V923.456L1148.5 924.096L1148.18 928H1131.92L1131.6 924.096L1136.14 923.456V900.736L1131.92 900.48L1131.6 896.576L1140.11 895.68ZM1178.44 895.68L1180.1 899.52C1181.81 897.941 1183.83 896.747 1186.18 895.936C1188.57 895.125 1191.13 894.72 1193.86 894.72C1196.59 894.72 1198.96 895.083 1200.96 895.808C1203.01 896.533 1204.7 897.557 1206.02 898.88C1207.39 900.203 1208.39 901.76 1209.03 903.552C1209.71 905.344 1210.05 907.328 1210.05 909.504V923.456L1214.6 924.096L1214.28 928H1198.02L1197.7 924.096L1202.31 923.456V908.864C1202.31 906.133 1201.56 903.979 1200.07 902.4C1198.62 900.821 1196.12 900.032 1192.58 900.032C1190.28 900.032 1188.25 900.331 1186.5 900.928C1184.75 901.525 1183.17 902.443 1181.76 903.68V923.456L1186.31 924.096L1185.99 928H1169.73L1169.41 924.096L1173.96 923.456V900.736L1169.73 900.48L1169.41 896.576L1178.44 895.68ZM1219.27 896V889.664L1225.93 885.504L1226.95 885.824V896H1240.45L1240.9 896.384L1240.26 901.568L1226.95 901.184V915.456C1226.95 917.12 1227.1 918.507 1227.4 919.616C1227.74 920.683 1228.23 921.536 1228.87 922.176C1229.55 922.816 1230.38 923.264 1231.37 923.52C1232.35 923.776 1233.5 923.904 1234.82 923.904C1237.3 923.904 1239.51 923.413 1241.48 922.432L1243.46 926.272C1242.22 927.296 1240.69 928.043 1238.85 928.512C1237.06 929.024 1235.08 929.28 1232.9 929.28C1228.25 929.28 1224.82 928.107 1222.6 925.76C1220.38 923.413 1219.27 919.957 1219.27 915.392V900.928L1214.21 900.608L1213.77 900.224L1214.98 896H1219.27Z" fill="white"/>
<path d="M937.23 1247.79C941.454 1247.15 945.464 1246.66 949.262 1246.32C953.102 1245.98 957.048 1245.81 961.102 1245.81C963.96 1245.81 966.712 1246 969.358 1246.38C972.003 1246.77 974.307 1247.45 976.27 1248.43C978.275 1249.41 979.875 1250.76 981.07 1252.46C982.264 1254.17 982.862 1256.37 982.862 1259.06C982.862 1262.47 981.838 1265.07 979.79 1266.86C977.742 1268.61 975.011 1269.83 971.597 1270.51V1270.96C973.304 1271.39 974.584 1272.18 975.438 1273.33L980.046 1279.79C980.43 1280.35 980.899 1280.73 981.454 1280.94C982.008 1281.16 982.542 1281.26 983.054 1281.26C984.675 1281.26 985.848 1280.56 986.574 1279.15L989.71 1280.94C989.07 1283.12 987.896 1284.72 986.19 1285.74C984.526 1286.77 982.606 1287.28 980.43 1287.28C978.851 1287.28 977.336 1286.87 975.886 1286.06C974.435 1285.3 973.262 1284.17 972.366 1282.67L967.438 1274.67C966.968 1273.99 966.35 1273.43 965.582 1273.01C964.856 1272.58 963.875 1272.37 962.638 1272.37C961.571 1272.37 960.59 1272.35 959.694 1272.3C958.798 1272.26 957.902 1272.2 957.006 1272.11C956.152 1272.03 955.299 1271.92 954.446 1271.79C953.592 1271.62 952.675 1271.41 951.694 1271.15V1280.75L957.902 1282.16L957.582 1286H937.549L937.23 1282.16L943.822 1280.69V1252.34L937.549 1251.76L937.23 1247.79ZM951.694 1266.22C953.486 1266.57 955.235 1266.82 956.942 1266.99C958.691 1267.12 960.654 1267.18 962.83 1267.18C964.664 1267.18 966.307 1267.06 967.757 1266.8C969.251 1266.54 970.51 1266.1 971.534 1265.46C972.6 1264.82 973.411 1263.96 973.966 1262.9C974.52 1261.83 974.798 1260.51 974.798 1258.93C974.798 1257.22 974.392 1255.86 973.582 1254.83C972.814 1253.81 971.79 1253.02 970.51 1252.46C969.272 1251.91 967.886 1251.55 966.35 1251.38C964.814 1251.16 963.278 1251.06 961.742 1251.06C958.67 1251.06 955.32 1251.38 951.694 1252.02V1266.22ZM1021.07 1267.63C1020.9 1264.13 1019.85 1261.64 1017.93 1260.14C1016.06 1258.61 1013.58 1257.84 1010.51 1257.84C1006.97 1257.84 1004.19 1258.67 1002.19 1260.34C1000.18 1262 998.946 1264.43 998.477 1267.63H1021.07ZM1011.72 1272.94L998.477 1272.24C998.818 1275.48 999.97 1277.96 1001.93 1279.66C1003.9 1281.33 1006.6 1282.16 1010.06 1282.16C1011.55 1282.16 1012.88 1282.1 1014.03 1281.97C1015.22 1281.84 1016.31 1281.65 1017.29 1281.39C1018.32 1281.09 1019.3 1280.71 1020.24 1280.24C1021.18 1279.73 1022.16 1279.11 1023.18 1278.38L1025.93 1282.99C1023.63 1284.61 1021.24 1285.72 1018.76 1286.32C1016.29 1286.96 1013.39 1287.28 1010.06 1287.28C1006.95 1287.28 1004.17 1286.83 1001.74 1285.94C999.309 1285.04 997.261 1283.8 995.597 1282.22C993.933 1280.65 992.674 1278.81 991.821 1276.72C990.967 1274.63 990.541 1272.39 990.541 1270C990.541 1267.61 990.989 1265.37 991.885 1263.28C992.781 1261.15 994.082 1259.31 995.789 1257.78C997.495 1256.2 999.586 1254.96 1002.06 1254.06C1004.54 1253.17 1007.35 1252.72 1010.51 1252.72C1013.37 1252.72 1015.93 1253.13 1018.19 1253.94C1020.49 1254.7 1022.43 1255.81 1024.01 1257.26C1025.59 1258.71 1026.79 1260.51 1027.6 1262.64C1028.45 1264.73 1028.88 1267.08 1028.88 1269.68C1028.88 1270.15 1028.86 1270.64 1028.81 1271.15C1028.77 1271.62 1028.68 1272.09 1028.56 1272.56L1028.17 1272.94H1011.72ZM1040.62 1253.68L1042.29 1257.52C1043.99 1255.94 1046.02 1254.75 1048.37 1253.94C1050.76 1253.13 1053.32 1252.72 1056.05 1252.72C1058.78 1252.72 1061.15 1253.08 1063.15 1253.81C1065.2 1254.53 1066.89 1255.56 1068.21 1256.88C1069.57 1258.2 1070.58 1259.76 1071.22 1261.55C1071.9 1263.34 1072.24 1265.33 1072.24 1267.5V1281.46L1076.78 1282.1L1076.46 1286H1060.21L1059.89 1282.1L1064.5 1281.46V1266.86C1064.5 1264.13 1063.75 1261.98 1062.26 1260.4C1060.81 1258.82 1058.31 1258.03 1054.77 1258.03C1052.46 1258.03 1050.44 1258.33 1048.69 1258.93C1046.94 1259.53 1045.36 1260.44 1043.95 1261.68V1281.46L1048.5 1282.1L1048.18 1286H1031.92L1031.6 1282.1L1036.14 1281.46V1258.74L1031.92 1258.48L1031.6 1254.58L1040.62 1253.68ZM1098.64 1252.72C1101.8 1252.72 1104.64 1253.17 1107.15 1254.06C1109.67 1254.96 1111.8 1256.2 1113.55 1257.78C1115.3 1259.35 1116.63 1261.19 1117.52 1263.28C1118.46 1265.37 1118.93 1267.61 1118.93 1270C1118.93 1272.39 1118.46 1274.65 1117.52 1276.78C1116.63 1278.87 1115.3 1280.71 1113.55 1282.29C1111.8 1283.82 1109.67 1285.04 1107.15 1285.94C1104.64 1286.83 1101.8 1287.28 1098.64 1287.28C1095.48 1287.28 1092.65 1286.83 1090.13 1285.94C1087.61 1285.04 1085.48 1283.82 1083.73 1282.29C1081.98 1280.71 1080.64 1278.87 1079.7 1276.78C1078.8 1274.65 1078.35 1272.39 1078.35 1270C1078.35 1267.61 1078.8 1265.37 1079.7 1263.28C1080.64 1261.19 1081.98 1259.35 1083.73 1257.78C1085.48 1256.2 1087.61 1254.96 1090.13 1254.06C1092.65 1253.17 1095.48 1252.72 1098.64 1252.72ZM1098.64 1257.84C1094.46 1257.84 1091.32 1258.95 1089.23 1261.17C1087.19 1263.34 1086.16 1266.29 1086.16 1270C1086.16 1273.75 1087.19 1276.72 1089.23 1278.9C1091.32 1281.07 1094.46 1282.16 1098.64 1282.16C1102.78 1282.16 1105.87 1281.07 1107.92 1278.9C1110.01 1276.72 1111.06 1273.75 1111.06 1270C1111.06 1266.29 1110.01 1263.34 1107.92 1261.17C1105.87 1258.95 1102.78 1257.84 1098.64 1257.84ZM1157.33 1286L1155.79 1282.48C1154.08 1284.06 1152.03 1285.25 1149.65 1286.06C1147.3 1286.87 1144.76 1287.28 1142.03 1287.28C1139.3 1287.28 1136.91 1286.9 1134.86 1286.13C1132.86 1285.4 1131.17 1284.38 1129.81 1283.06C1128.48 1281.69 1127.48 1280.11 1126.8 1278.32C1126.16 1276.49 1125.84 1274.48 1125.84 1272.3V1258.54L1121.29 1257.9L1121.61 1254H1137.87L1138.19 1257.9L1133.58 1258.54V1272.94C1133.58 1275.72 1134.31 1277.91 1135.76 1279.54C1137.25 1281.16 1139.77 1281.97 1143.31 1281.97C1145.61 1281.97 1147.64 1281.67 1149.39 1281.07C1151.14 1280.47 1152.72 1279.56 1154.13 1278.32V1258.54L1149.58 1257.9L1149.9 1254H1166.16L1166.48 1257.9L1161.93 1258.54V1280.94L1166.48 1282.1L1166.16 1286H1157.33ZM1178.5 1253.68L1180.16 1257.52C1181.87 1255.94 1183.9 1254.75 1186.24 1253.94C1188.63 1253.13 1191.19 1252.72 1193.92 1252.72C1196.65 1252.72 1199.02 1253.08 1201.03 1253.81C1203.08 1254.53 1204.76 1255.56 1206.08 1256.88C1207.45 1258.2 1208.45 1259.76 1209.09 1261.55C1209.77 1263.34 1210.12 1265.33 1210.12 1267.5V1281.46L1214.66 1282.1L1214.34 1286H1198.08L1197.76 1282.1L1202.37 1281.46V1266.86C1202.37 1264.13 1201.62 1261.98 1200.13 1260.4C1198.68 1258.82 1196.18 1258.03 1192.64 1258.03C1190.34 1258.03 1188.31 1258.33 1186.56 1258.93C1184.81 1259.53 1183.24 1260.44 1181.83 1261.68V1281.46L1186.37 1282.1L1186.05 1286H1169.8L1169.48 1282.1L1174.02 1281.46V1258.74L1169.8 1258.48L1169.48 1254.58L1178.5 1253.68ZM1251.11 1268.85H1246.44L1245.22 1259.63C1243.85 1259.03 1242.47 1258.59 1241.06 1258.29C1239.69 1257.99 1238.18 1257.84 1236.52 1257.84C1234.51 1257.84 1232.74 1258.14 1231.2 1258.74C1229.67 1259.33 1228.37 1260.17 1227.3 1261.23C1226.23 1262.3 1225.42 1263.58 1224.87 1265.07C1224.31 1266.57 1224.04 1268.21 1224.04 1270C1224.04 1271.79 1224.27 1273.43 1224.74 1274.93C1225.25 1276.38 1226 1277.66 1226.98 1278.77C1227.96 1279.83 1229.18 1280.67 1230.63 1281.26C1232.12 1281.86 1233.87 1282.16 1235.88 1282.16C1237.37 1282.16 1238.69 1282.1 1239.84 1281.97C1241.04 1281.8 1242.13 1281.56 1243.11 1281.26C1244.13 1280.92 1245.11 1280.52 1246.05 1280.05C1246.99 1279.54 1247.97 1278.92 1249 1278.19L1251.75 1282.8C1249.44 1284.42 1246.97 1285.57 1244.32 1286.26C1241.72 1286.94 1238.91 1287.28 1235.88 1287.28C1232.8 1287.28 1230.05 1286.83 1227.62 1285.94C1225.19 1285.04 1223.12 1283.8 1221.41 1282.22C1219.75 1280.65 1218.47 1278.81 1217.57 1276.72C1216.68 1274.63 1216.23 1272.39 1216.23 1270C1216.23 1267.61 1216.68 1265.37 1217.57 1263.28C1218.51 1261.15 1219.85 1259.31 1221.6 1257.78C1223.35 1256.2 1225.49 1254.96 1228 1254.06C1230.52 1253.17 1233.36 1252.72 1236.52 1252.72C1239.76 1252.72 1242.66 1253.02 1245.22 1253.62C1247.82 1254.21 1250.08 1255 1252 1255.98L1251.11 1268.85ZM1286.69 1267.63C1286.52 1264.13 1285.48 1261.64 1283.56 1260.14C1281.68 1258.61 1279.21 1257.84 1276.13 1257.84C1272.59 1257.84 1269.82 1258.67 1267.81 1260.34C1265.81 1262 1264.57 1264.43 1264.1 1267.63H1286.69ZM1277.35 1272.94L1264.1 1272.24C1264.44 1275.48 1265.59 1277.96 1267.56 1279.66C1269.52 1281.33 1272.23 1282.16 1275.69 1282.16C1277.18 1282.16 1278.5 1282.1 1279.65 1281.97C1280.85 1281.84 1281.94 1281.65 1282.92 1281.39C1283.94 1281.09 1284.92 1280.71 1285.86 1280.24C1286.8 1279.73 1287.78 1279.11 1288.81 1278.38L1291.56 1282.99C1289.25 1284.61 1286.86 1285.72 1284.39 1286.32C1281.91 1286.96 1279.01 1287.28 1275.69 1287.28C1272.57 1287.28 1269.8 1286.83 1267.37 1285.94C1264.93 1285.04 1262.89 1283.8 1261.22 1282.22C1259.56 1280.65 1258.3 1278.81 1257.45 1276.72C1256.59 1274.63 1256.17 1272.39 1256.17 1270C1256.17 1267.61 1256.61 1265.37 1257.51 1263.28C1258.41 1261.15 1259.71 1259.31 1261.41 1257.78C1263.12 1256.2 1265.21 1254.96 1267.69 1254.06C1270.16 1253.17 1272.98 1252.72 1276.13 1252.72C1278.99 1252.72 1281.55 1253.13 1283.81 1253.94C1286.12 1254.7 1288.06 1255.81 1289.64 1257.26C1291.22 1258.71 1292.41 1260.51 1293.22 1262.64C1294.07 1264.73 1294.5 1267.08 1294.5 1269.68C1294.5 1270.15 1294.48 1270.64 1294.44 1271.15C1294.39 1271.62 1294.31 1272.09 1294.18 1272.56L1293.8 1272.94H1277.35ZM1335.61 1280.69L1340.15 1282.1V1286H1332.35L1330.3 1282.74C1328.46 1284.36 1326.39 1285.51 1324.09 1286.19C1321.79 1286.92 1319.23 1287.28 1316.41 1287.28C1313.55 1287.28 1310.99 1286.85 1308.73 1286C1306.47 1285.19 1304.53 1284.02 1302.91 1282.48C1301.33 1280.94 1300.11 1279.13 1299.26 1277.04C1298.4 1274.91 1297.98 1272.56 1297.98 1270C1297.98 1267.48 1298.43 1265.18 1299.32 1263.09C1300.26 1260.95 1301.6 1259.12 1303.35 1257.58C1305.1 1256.05 1307.22 1254.85 1309.69 1254C1312.21 1253.15 1315.07 1252.72 1318.27 1252.72C1320.23 1252.72 1322 1252.89 1323.58 1253.23C1325.16 1253.57 1326.59 1254.04 1327.87 1254.64V1248.75L1323.39 1248.11L1323 1244.21L1335.1 1243.44L1335.61 1243.76V1280.69ZM1327.87 1259.57C1326.16 1258.97 1324.56 1258.59 1323.07 1258.42C1321.57 1258.2 1319.97 1258.1 1318.27 1258.1C1314.47 1258.1 1311.44 1259.03 1309.18 1260.91C1306.96 1262.79 1305.85 1265.82 1305.85 1270C1305.85 1272.13 1306.13 1273.95 1306.68 1275.44C1307.28 1276.93 1308.07 1278.17 1309.05 1279.15C1310.03 1280.09 1311.2 1280.79 1312.57 1281.26C1313.94 1281.69 1315.41 1281.9 1316.99 1281.9C1319.42 1281.9 1321.57 1281.58 1323.45 1280.94C1325.33 1280.26 1326.8 1279.37 1327.87 1278.26V1259.57Z" fill="white"/>
<path d="M1027.76 655.31C1023.55 659.054 1011 656.725 1006.38 656.725C988.446 656.725 971.729 656.758 954.667 649.965C943.123 645.369 934.79 637.045 926.529 627.958C917.865 618.428 908.772 609.64 902.163 598.405C891.243 579.84 887.454 549.528 894.775 529.395C900.258 514.316 920.351 504.767 931.559 494.026C942.729 483.321 956.163 475.245 970.858 470.29C1005.36 458.657 1041.19 452.958 1077.28 449.54C1151.41 442.517 1223.18 440.063 1296.41 455.041C1316.82 459.217 1335.53 466.786 1352.85 478.464C1362.65 485.076 1379.24 497.054 1383.18 508.488C1391.76 533.347 1382.02 557.018 1369.35 578.126C1353.63 604.33 1324.85 614.288 1297.28 623.477C1269.28 632.81 1241.95 640.18 1212.94 646.114C1200.07 648.746 1187.24 649.999 1174.27 651.851C1163.43 653.4 1152.72 656.669 1141.89 657.982C1125.26 659.998 1107.44 660.969 1090.72 660.969C1081.59 660.969 1072.88 663.798 1063.68 663.798C1057.13 663.798 1050.58 663.798 1044.03 663.798C1028.61 663.798 1016.24 662.25 1003.71 653.895" stroke="#F7FF00" stroke-width="6" stroke-linecap="round"/>
<path d="M1027.76 1013.31C1023.55 1017.05 1011 1014.72 1006.38 1014.72C988.446 1014.72 971.729 1014.76 954.667 1007.97C943.123 1003.37 934.79 995.045 926.529 985.958C917.865 976.428 908.772 967.64 902.163 956.405C891.243 937.84 887.454 907.528 894.775 887.395C900.258 872.316 920.351 862.767 931.559 852.026C942.729 841.321 956.163 833.245 970.858 828.29C1005.36 816.657 1041.19 810.958 1077.28 807.54C1151.41 800.517 1223.18 798.063 1296.41 813.041C1316.82 817.217 1335.53 824.786 1352.85 836.464C1362.65 843.076 1379.24 855.054 1383.18 866.488C1391.76 891.347 1382.02 915.018 1369.35 936.126C1353.63 962.33 1324.85 972.288 1297.28 981.477C1269.28 990.81 1241.95 998.18 1212.94 1004.11C1200.07 1006.75 1187.24 1008 1174.27 1009.85C1163.43 1011.4 1152.72 1014.67 1141.89 1015.98C1125.26 1018 1107.44 1018.97 1090.72 1018.97C1081.59 1018.97 1072.88 1021.8 1063.68 1021.8C1057.13 1021.8 1050.58 1021.8 1044.03 1021.8C1028.61 1021.8 1016.24 1020.25 1003.71 1011.9" stroke="#F7FF00" stroke-width="6" stroke-linecap="round"/>
<path d="M1027.76 1371.31C1023.55 1375.05 1011 1372.72 1006.38 1372.72C988.446 1372.72 971.729 1372.76 954.667 1365.97C943.123 1361.37 934.79 1353.05 926.529 1343.96C917.865 1334.43 908.772 1325.64 902.163 1314.4C891.243 1295.84 887.454 1265.53 894.775 1245.4C900.258 1230.32 920.351 1220.77 931.559 1210.03C942.729 1199.32 956.163 1191.24 970.858 1186.29C1005.36 1174.66 1041.19 1168.96 1077.28 1165.54C1151.41 1158.52 1223.18 1156.06 1296.41 1171.04C1316.82 1175.22 1335.53 1182.79 1352.85 1194.46C1362.65 1201.08 1379.24 1213.05 1383.18 1224.49C1391.76 1249.35 1382.02 1273.02 1369.35 1294.13C1353.63 1320.33 1324.85 1330.29 1297.28 1339.48C1269.28 1348.81 1241.95 1356.18 1212.94 1362.11C1200.07 1364.75 1187.24 1366 1174.27 1367.85C1163.43 1369.4 1152.72 1372.67 1141.89 1373.98C1125.26 1376 1107.44 1376.97 1090.72 1376.97C1081.59 1376.97 1072.88 1379.8 1063.68 1379.8C1057.13 1379.8 1050.58 1379.8 1044.03 1379.8C1028.61 1379.8 1016.24 1378.25 1003.71 1369.9" stroke="#F7FF00" stroke-width="6" stroke-linecap="round"/>
<defs>
<linearGradient id="paint0_linear_154_1698" x1="306.179" y1="-59.2952" x2="876.78" y2="1615.09" gradientUnits="userSpaceOnUse">
<stop stop-color="#790D0D"/>
<stop offset="1" stop-color="#470000"/>
</linearGradient>
</defs>
</svg>
